<svg xmlns="http://www.w3.org/2000/svg" fill="none" viewBox="0 0 96 96" id="Calendar">
  <path fill="url(#paint0_linear_781_3690)" fill-rule="evenodd" d="M30 11.5C31.3807 11.5 32.5 12.6193 32.5 14V16.5H63.5V14C63.5 12.6193 64.6193 11.5 66 11.5C67.3807 11.5 68.5 12.6193 68.5 14V16.5H76C82.3513 16.5 87.5 21.6487 87.5 28V34V73C87.5 79.3513 82.3513 84.5 76 84.5H19C12.6487 84.5 7.5 79.3513 7.5 73V28C7.5 21.6487 12.6487 16.5 19 16.5H27.5V14C27.5 12.6193 28.6193 11.5 30 11.5ZM63.5 21.5V24C63.5 25.3807 64.6193 26.5 66 26.5C67.3807 26.5 68.5 25.3807 68.5 24V21.5H76C79.5899 21.5 82.5 24.4101 82.5 28V31.5L12.5 31.5V28C12.5 24.4101 15.4101 21.5 19 21.5H27.5V24C27.5 25.3807 28.6193 26.5 30 26.5C31.3807 26.5 32.5 25.3807 32.5 24V21.5H63.5ZM12.5 36.5L82.5 36.5V73C82.5 76.5899 79.5899 79.5 76 79.5H19C15.4101 79.5 12.5 76.5899 12.5 73V36.5ZM20 47.5C20 46.1193 21.1193 45 22.5 45H27.5C28.8807 45 30 46.1193 30 47.5C30 48.8807 28.8807 50 27.5 50H22.5C21.1193 50 20 48.8807 20 47.5ZM22.5 55C21.1193 55 20 56.1193 20 57.5C20 58.8807 21.1193 60 22.5 60H27.5C28.8807 60 30 58.8807 30 57.5C30 56.1193 28.8807 55 27.5 55H22.5ZM20 67.5C20 66.1193 21.1193 65 22.5 65H27.5C28.8807 65 30 66.1193 30 67.5C30 68.8807 28.8807 70 27.5 70H22.5C21.1193 70 20 68.8807 20 67.5ZM37.5 45C36.1193 45 35 46.1193 35 47.5C35 48.8807 36.1193 50 37.5 50H42.5C43.8807 50 45 48.8807 45 47.5C45 46.1193 43.8807 45 42.5 45H37.5ZM35 57.5C35 56.1193 36.1193 55 37.5 55H42.5C43.8807 55 45 56.1193 45 57.5C45 58.8807 43.8807 60 42.5 60H37.5C36.1193 60 35 58.8807 35 57.5ZM37.5 65C36.1193 65 35 66.1193 35 67.5C35 68.8807 36.1193 70 37.5 70H42.5C43.8807 70 45 68.8807 45 67.5C45 66.1193 43.8807 65 42.5 65H37.5ZM50 47.5C50 46.1193 51.1193 45 52.5 45H57.5C58.8807 45 60 46.1193 60 47.5C60 48.8807 58.8807 50 57.5 50H52.5C51.1193 50 50 48.8807 50 47.5ZM54.4122 53.4708C53.5999 52.6585 52.2829 52.6585 51.4706 53.4708C50.6583 54.2831 50.6583 55.6001 51.4706 56.4123L52.3081 57.2498L50.9728 58.5851C50.1601 59.3978 50.1601 60.7155 50.9728 61.5282C51.7855 62.341 53.1032 62.341 53.916 61.5282L55.2512 60.193L56.5509 61.4926C57.3632 62.3049 58.6801 62.3049 59.4924 61.4926C60.3047 60.6803 60.3047 59.3633 59.4924 58.551L58.1928 57.2514L58.9946 56.4496C59.8074 55.6368 59.8074 54.3191 58.9946 53.5064C58.1819 52.6937 56.8642 52.6937 56.0515 53.5064L55.2496 54.3082L54.4122 53.4708ZM52.5 65C51.1193 65 50 66.1193 50 67.5C50 68.8807 51.1193 70 52.5 70H57.5C58.8807 70 60 68.8807 60 67.5C60 66.1193 58.8807 65 57.5 65H52.5ZM65 47.5C65 46.1193 66.1193 45 67.5 45H72.5C73.8807 45 75 46.1193 75 47.5C75 48.8807 73.8807 50 72.5 50H67.5C66.1193 50 65 48.8807 65 47.5ZM67.5 55C66.1193 55 65 56.1193 65 57.5C65 58.8807 66.1193 60 67.5 60H72.5C73.8807 60 75 58.8807 75 57.5C75 56.1193 73.8807 55 72.5 55H67.5ZM65 67.5C65 66.1193 66.1193 65 67.5 65H72.5C73.8807 65 75 66.1193 75 67.5C75 68.8807 73.8807 70 72.5 70H67.5C66.1193 70 65 68.8807 65 67.5Z" clip-rule="evenodd"></path>
  <defs>
    <linearGradient id="paint0_linear_781_3690" x1="47.5" x2="47.5" y1="11.5" y2="84.5" gradientUnits="userSpaceOnUse">
      <stop stop-color="#222831" class="stopColorffb119 svgShape"></stop>
      <stop offset="1" stop-color="#c96112" class="stopColorff813b svgShape"></stop>
    </linearGradient>
  </defs>
</svg>
