<svg xmlns="http://www.w3.org/2000/svg" viewBox="0 0 12.7 12.7" id="Chat">
  <path fill="#222831" d="M5.556 1.587a.798.798 0 0 0-.793.794V3.97a.265.265 0 0 0 .264.265h2.117c.15 0 .264.113.264.264v2.646a.265.265 0 0 0 .265.265H9.98l1.19 1.488a.265.265 0 0 0 .472-.165V7.409h.264a.798.798 0 0 0 .794-.794V2.38a.798.798 0 0 0-.794-.794z" color="#000" font-family="sans-serif" font-weight="400" overflow="visible" style="line-height:normal;font-variant-ligatures:normal;font-variant-position:normal;font-variant-caps:normal;font-variant-numeric:normal;font-variant-alternates:normal;font-feature-settings:normal;text-indent:0;text-align:start;text-decoration-line:none;text-decoration-style:solid;text-decoration-color:#000;text-transform:none;text-orientation:mixed;shape-padding:0;isolation:auto;mix-blend-mode:normal" class="color424242 svgShape"></path>
  <path fill="#f96d00" d="M.793 3.705A.796.796 0 0 0 0 4.498v4.233c0 .435.358.795.793.795h.266v1.322a.265.265 0 0 0 .47.166l1.192-1.488h4.424c.435 0 .793-.36.793-.795V4.498a.796.796 0 0 0-.793-.793z" color="#000" font-family="sans-serif" font-weight="400" overflow="visible" style="line-height:normal;font-variant-ligatures:normal;font-variant-position:normal;font-variant-caps:normal;font-variant-numeric:normal;font-variant-alternates:normal;font-feature-settings:normal;text-indent:0;text-align:start;text-decoration-line:none;text-decoration-style:solid;text-decoration-color:#000;text-transform:none;text-orientation:mixed;shape-padding:0;isolation:auto;mix-blend-mode:normal" class="colorff9800 svgShape"></path>
  <path fill="#222831" d="M1.852 5.82a.798.798 0 0 0-.793.795c0 .436.357.794.793.794a.798.798 0 0 0 .794-.794.8.8 0 0 0-.794-.794zm2.117 0a.798.798 0 0 0-.793.795c0 .436.358.794.793.794a.796.796 0 0 0 .792-.794.798.798 0 0 0-.792-.794zm2.117 0a.8.8 0 0 0-.795.795c0 .436.36.794.795.794a.796.796 0 0 0 .793-.794.798.798 0 0 0-.793-.794z" color="#000" font-family="sans-serif" font-weight="400" overflow="visible" style="line-height:normal;font-variant-ligatures:normal;font-variant-position:normal;font-variant-caps:normal;font-variant-numeric:normal;font-variant-alternates:normal;font-feature-settings:normal;text-indent:0;text-align:start;text-decoration-line:none;text-decoration-style:solid;text-decoration-color:#000;text-transform:none;text-orientation:mixed;shape-padding:0;isolation:auto;mix-blend-mode:normal" class="color424242 svgShape"></path>
</svg>
