<svg xmlns="http://www.w3.org/2000/svg" xml:space="preserve" viewBox="0 0 512 512" id="Chat">
  <linearGradient id="a" x1="80.941" x2="432.182" y1="403.63" y2="52.389" gradientUnits="userSpaceOnUse">
    <stop offset="0" stop-color="#222831" class="stopColorfcc60e svgShape"></stop>
    <stop offset="1" stop-color="#c96112" class="stopColore92e29 svgShape"></stop>
  </linearGradient>
  <path fill="url(#a)" d="M457.109 102.263h-25.137V74.88c0-30.267-24.624-54.891-54.891-54.891H54.891C24.624 19.989 0 44.613 0 74.88v219.03c0 30.267 24.624 54.891 54.891 54.891h27.472v52.937a8.002 8.002 0 0 0 7.998 8 8 8 0 0 0 5.809-2.497l55.385-58.439h25.272v27.383c0 30.267 24.624 54.891 54.891 54.891h128.729l55.385 58.439a7.998 7.998 0 0 0 8.769 1.929 8.001 8.001 0 0 0 5.038-7.432v-52.937h27.472c30.267 0 54.891-24.624 54.891-54.891v-219.03c-.002-30.267-24.626-54.891-54.893-54.891zM148.113 332.801a8.002 8.002 0 0 0-5.807 2.497l-43.944 46.368v-40.865a8 8 0 0 0-8-8H54.891C33.446 332.801 16 315.354 16 293.91V74.88c0-21.444 17.446-38.891 38.891-38.891h322.191c21.444 0 38.891 17.446 38.891 38.891v219.03c0 21.444-17.446 38.891-38.891 38.891H148.113zM496 376.184c0 21.444-17.446 38.891-38.891 38.891h-35.472a8 8 0 0 0-8 8v40.865l-43.944-46.368a8 8 0 0 0-5.807-2.497h-132.17c-21.444 0-38.891-17.446-38.891-38.891v-27.383h184.256c30.267 0 54.891-24.624 54.891-54.891V118.263h25.137c21.444 0 38.891 17.446 38.891 38.891v219.03zM361.83 118.438a8 8 0 0 1-8 8H78.143a8 8 0 0 1 0-16H353.83c4.418 0 8 3.583 8 8zm0 65.957a8 8 0 0 1-8 8H194.87a8 8 0 0 1 0-16h158.96a8 8 0 0 1 8 8zm-199.767 0a8 8 0 0 1-8 8h-75.92a8 8 0 0 1 0-16h75.921a8 8 0 0 1 7.999 8zm0 65.956a8 8 0 0 1-8 8h-75.92a8 8 0 0 1 0-16h75.921a8 8 0 0 1 7.999 8zm100.595 0a8 8 0 0 1-8 8H194.87a8 8 0 0 1 0-16h59.788a8 8 0 0 1 8 8zm99.172 0a8 8 0 0 1-8 8h-62.635a8 8 0 0 1 0-16h62.635a8 8 0 0 1 8 8z"></path>
</svg>
