<svg xmlns="http://www.w3.org/2000/svg" xmlns:xlink="http://www.w3.org/1999/xlink" viewBox="0 0 64 64" id="FoodPackageDelivery">
  <defs>
    <linearGradient id="a" x1="10.646" x2="61.476" y1="66.209" y2="9.026" gradientUnits="userSpaceOnUse">
      <stop offset="0" stop-color="#222831" class="stopColorfff200 svgShape"></stop>
      <stop offset="1" stop-color="#c96112" class="stopColorcd118c svgShape"></stop>
    </linearGradient>
    <linearGradient xlink:href="#a" id="b" x1="13.999" x2="64.828" y1="69.189" y2="12.006"></linearGradient>
    <linearGradient xlink:href="#a" id="c" x1="6.892" x2="57.721" y1="62.872" y2="5.689"></linearGradient>
    <linearGradient xlink:href="#a" id="d" x1="13.595" x2="64.425" y1="68.83" y2="11.647"></linearGradient>
    <linearGradient xlink:href="#a" id="e" x1="10.554" x2="61.383" y1="66.127" y2="8.944"></linearGradient>
  </defs>
  <path fill="url(#a)" d="M61,38H59V35c0-11.06-4.65-15-9-15a6.832,6.832,0,0,0-1.98.31A7.079,7.079,0,0,0,46,20c-4.35,0-9,3.94-9,15v3H36V14a1.033,1.033,0,0,0-.29-.71L34,11.59V8.41l1.71-1.7A1.033,1.033,0,0,0,36,6V3a1,1,0,0,0-1-1H29a1,1,0,0,0-.99.84L24.7,22.69l-.73-2.93A1,1,0,0,0,23,19H15.24l-3.79-1.89A1,1,0,0,0,11,17H9a.988.988,0,0,0-.89.55L7.38,19H6a1,1,0,0,0-.97.76L4.22,23H4a1,1,0,0,0-1,1v5a1,1,0,0,0,1,1h.03l.25,8H3a1,1,0,0,0-1,1V61a1,1,0,0,0,1,1H61a1,1,0,0,0,1-1V39A1,1,0,0,0,61,38Zm-4-3v3H55V35c0-6.62-1.67-10.67-3.94-12.87C54.7,22.91,57,27.78,57,35ZM40.68,26H43a1,1,0,0,1,1,1,.949.949,0,0,1-.31.71A.928.928,0,0,1,43,28H39.92A13.007,13.007,0,0,1,40.68,26Zm-1.61,7H43a1,1,0,0,1,1,1,.949.949,0,0,1-.31.71A.928.928,0,0,1,43,35H39C39,34.31,39.03,33.65,39.07,33ZM39,37h4a3,3,0,0,0,3-3,3.009,3.009,0,0,0-3-3H39.27c.04-.34.1-.67.16-1H43a3,3,0,0,0,3-3,3.009,3.009,0,0,0-3-3H41.95A5.221,5.221,0,0,1,46,22c4.25,0,7,5.1,7,13v3H39ZM29.85,4H34V5.59l-1.71,1.7A1.033,1.033,0,0,0,32,8v4a1.033,1.033,0,0,0,.29.71L34,14.41V38H24.18ZM6.78,21H8a.988.988,0,0,0,.89-.55L9.62,19h1.14l3.79,1.89A1,1,0,0,0,15,21h7.22l.5,2H6.28ZM5,25H24.32l-.5,3H5Zm18.49,5-1.34,8H6.28l-.25-8ZM60,60H4V40H60Z"></path>
  <path fill="url(#b)" d="M46,42H17a1,1,0,0,0-1,1V56a1,1,0,0,0,1,1H46a1,1,0,0,0,1-1V43A1,1,0,0,0,46,42ZM45,55H18V44H45Z"></path>
  <rect width="2" height="2" x="20" y="46" fill="url(#c)"></rect>
  <rect width="18" height="2" x="24" y="46" fill="url(#d)"></rect>
  <rect width="8" height="2" x="20" y="50" fill="url(#e)"></rect>
</svg>
