<svg xmlns="http://www.w3.org/2000/svg" xmlns:xlink="http://www.w3.org/1999/xlink" enable-background="new 0 0 32 32" viewBox="0 0 32 32" id="GearSetting">
  <defs>
    <linearGradient id="a" x1="256" x2="256" y1="512" gradientUnits="userSpaceOnUse">
      <stop offset="0" stop-color="#c96112" class="stopColorfd5900 svgShape"></stop>
      <stop offset="1" stop-color="#222831" class="stopColorffde00 svgShape"></stop>
    </linearGradient>
    <linearGradient xlink:href="#a" id="b" x1="5.762" x2="24.483" y1="26.977" y2="5.799" gradientUnits="userSpaceOnUse"></linearGradient>
  </defs>
  <path fill="url(#b)" d="M5.762,26.977c1.19,1.192,3.155,1.192,4.348,0l0.612-0.613c0.546,0.277,1.107,0.513,1.689,0.702v0.863  c0,1.686,1.387,3.071,3.071,3.071h1.033c1.686,0,3.078-1.385,3.078-3.071v-0.871c0.579-0.188,1.141-0.417,1.684-0.694l0.612,0.613  c1.191,1.192,3.156,1.192,4.348,0l0.738-0.734c1.192-1.195,1.192-3.158,0-4.352l-0.612-0.605c0.277-0.546,0.513-1.108,0.701-1.69  h0.863c1.687,0,3.071-1.393,3.071-3.079v-1.033c0-1.686-1.386-3.078-3.071-3.078h-0.871c-0.188-0.579-0.417-1.141-0.693-1.683  l0.612-0.613c1.192-1.192,1.192-3.156,0-4.348l-0.738-0.738c-1.19-1.192-3.154-1.192-4.348,0l-0.612,0.612  c-0.543-0.276-1.104-0.505-1.684-0.694V4.078c0-1.686-1.394-3.079-3.078-3.078l-1.033,0c-1.686,0-3.071,1.393-3.071,3.078v0.856  c-0.582,0.189-1.145,0.424-1.689,0.701l-0.612-0.612c-1.191-1.192-3.156-1.192-4.348,0L5.03,5.762c-1.19,1.192-1.19,3.156,0,4.348  l0.605,0.613c-0.275,0.542-0.505,1.104-0.693,1.683H4.078c-1.686,0-3.077,1.392-3.077,3.078v1.033c0,1.686,1.393,3.079,3.077,3.079  h0.864c0.189,0.581,0.416,1.146,0.693,1.69L5.03,21.891c-1.191,1.193-1.191,3.156,0,4.352L5.762,26.977z M15.482,3.002h1.033  c0.612,0,1.078,0.465,1.078,1.078v1.521c0.002,0.458,0.314,0.857,0.76,0.967c0.937,0.233,1.831,0.604,2.658,1.1  c0.392,0.235,0.894,0.174,1.218-0.148l1.078-1.078c0.433-0.433,1.087-0.433,1.521,0l0.73,0.738c0.433,0.433,0.433,1.08,0,1.513  l-1.07,1.078c-0.328,0.324-0.392,0.83-0.154,1.226c0.496,0.827,0.874,1.722,1.106,2.658c0.113,0.442,0.511,0.752,0.967,0.753h1.521  c0.611,0,1.07,0.465,1.07,1.078v1.033c0,0.612-0.459,1.078-1.07,1.078h-1.521c-0.461-0.002-0.862,0.313-0.974,0.76  c-0.233,0.936-0.604,1.831-1.101,2.657c-0.232,0.394-0.17,0.896,0.154,1.218l1.07,1.078c0.433,0.433,0.433,1.088,0,1.521  l-0.73,0.731c-0.434,0.433-1.088,0.433-1.521,0l-1.078-1.078c-0.324-0.322-0.826-0.382-1.218-0.147  c-0.827,0.497-1.723,0.866-2.658,1.1c-0.447,0.111-0.762,0.513-0.76,0.975v1.521c0,0.612-0.466,1.07-1.078,1.07h-1.033  c-0.612,0-1.078-0.458-1.078-1.07v-1.521c0.003-0.459-0.308-0.861-0.753-0.975c-0.936-0.233-1.831-0.604-2.657-1.1  c-0.394-0.239-0.898-0.178-1.226,0.147l-1.07,1.078c-0.433,0.433-1.088,0.433-1.521,0l-0.738-0.731  c-0.433-0.432-0.433-1.088,0-1.521l1.078-1.078c0.321-0.325,0.382-0.826,0.146-1.218c-0.496-0.826-0.865-1.722-1.1-2.657  c-0.111-0.448-0.514-0.762-0.975-0.76H4.074c-0.611,0-1.077-0.466-1.077-1.078v-1.033c0-0.612,0.608-0.883,1.077-1.078  c0.469-0.194,1.521,0,1.521,0c0.457-0.001,0.854-0.311,0.968-0.753c0.233-0.936,0.604-1.831,1.1-2.658  c0.238-0.394,0.179-0.899-0.146-1.226L6.438,8.693c-0.433-0.433-0.433-1.08,0-1.513l0.738-0.738c0.433-0.433,1.08-0.433,1.514,0  L9.768,7.52c0.326,0.326,0.832,0.387,1.226,0.148c0.826-0.497,1.723-0.866,2.657-1.1c0.445-0.113,0.756-0.515,0.753-0.974V4.08  C14.404,3.467,14.87,3.002,15.482,3.002L15.482,3.002z M16,10.332c-3.118,0-5.662,2.552-5.662,5.669  c0,3.117,2.544,5.669,5.662,5.669c3.117,0,5.669-2.552,5.669-5.669C21.669,12.884,19.117,10.332,16,10.332z M16,12.332  c2.036,0,3.669,1.632,3.669,3.669c0,2.037-1.633,3.669-3.669,3.669c-2.037,0-3.661-1.632-3.661-3.669  C12.339,13.965,13.963,12.332,16,12.332z"></path>
</svg>
