<svg xmlns="http://www.w3.org/2000/svg" enable-background="new 0 0 60 60" viewBox="0 0 60 60" id="graph">
  <path fill="#222831" d="M39.9500122,19.3399658h-6.8400269c-0.5599976,0-1,0.4400024-1,1v29.4700317c0,0.5599976,0.4400024,1,1,1
		h6.8400269c0.5499878,0,1-0.4400024,1-1V20.3399658C40.9500122,19.7799683,40.5,19.3399658,39.9500122,19.3399658z" class="color3b4652 svgShape"></path>
  <path fill="#f96d00" d="M27.8900146 30.4899902v19.3200073c0 .5599976-.4400024 1-1 1h-6.8400269c-.5499878 0-1-.4400024-1-1V30.4899902c0-.5599976.4500122-1 1-1h6.8400269C27.4500122 29.4899902 27.8900146 29.9299927 27.8900146 30.4899902zM54 10.1900024v39.6199951c0 .5599976-.4500122 1-1 1h-6.8400269c-.5499878 0-1-.4400024-1-1V10.1900024c0-.5599976.4500122-1 1-1H53C53.5499878 9.1900024 54 9.6300049 54 10.1900024z" class="color2b79c2 svgShape"></path>
  <path fill="#222831" d="M13.8400269,39.6400146H7c-0.5499878,0-1,0.4399414-1,1v9.1699829c0,0.5599976,0.4500122,1,1,1h6.8400269
		c0.5499878,0,1-0.4400024,1-1v-9.1699829C14.8400269,40.0799561,14.3900146,39.6400146,13.8400269,39.6400146z" class="color3b4652 svgShape"></path>
</svg>
