<svg xmlns="http://www.w3.org/2000/svg" xml:space="preserve" viewBox="0 0 512 512" id="GrowthGraph">
  <linearGradient id="a" x1="39.029" x2="472.971" y1="444.405" y2="10.462" gradientUnits="userSpaceOnUse">
    <stop offset="0" stop-color="#222831" class="stopColorfcc60e svgShape"></stop>
    <stop offset="1" stop-color="#c96112" class="stopColore92e29 svgShape"></stop>
  </linearGradient>
  <path fill="url(#a)" d="M466.826 54.324H45.174c-7.327 0-13.288 5.961-13.288 13.288v237.177a8 8 0 0 0 8 8H126.5v25.999a8 8 0 0 0 8 8h36.983a8 8 0 0 0 8-8v-25.999h15.689v26a8 8 0 0 0 8 8h36.983a8 8 0 0 0 8-8v-26h15.688v26a8 8 0 0 0 8 8h36.984a8 8 0 0 0 8-8v-26h15.688v25.999a8 8 0 0 0 8 8H377.5a8 8 0 0 0 8-8v-25.999h86.614a8 8 0 0 0 8-8V67.612c0-7.327-5.961-13.288-13.288-13.288zM163.483 330.788H142.5V291.14h20.983v39.648zm68.673.001h-20.983V228.744h20.983v102.045zm68.673 0h-20.984v-76.823h20.984v76.823zm68.671-.001h-20.983V180.23H369.5v150.558zm94.614-33.999H385.5V172.23a8 8 0 0 0-8-8h-36.983a8 8 0 0 0-8 8v124.559h-15.688v-50.823a8 8 0 0 0-8-8h-36.984a8 8 0 0 0-8 8v50.823h-15.688v-76.045a8 8 0 0 0-8-8h-36.983a8 8 0 0 0-8 8v76.045h-15.689V283.14a8 8 0 0 0-8-8H134.5a8 8 0 0 0-8 8v13.649H47.886V70.324h416.229v226.465zm1.755-274.351H46.131C20.694 22.438 0 43.132 0 68.568v262.32c0 25.437 20.694 46.131 46.131 46.131h123.927V421.6h-50.041c-22.341 0-40.517 15.244-40.517 33.98v25.981a8 8 0 0 0 8 8h337a8 8 0 0 0 8-8V455.58c0-18.737-18.176-33.98-40.517-33.98h-50.041v-44.581h123.927c25.437 0 46.131-20.694 46.131-46.131V68.568c0-25.436-20.694-46.13-46.131-46.13zM416.5 455.581v17.981h-321v-17.981c0-9.747 11.228-17.98 24.517-17.98h271.967c13.288-.001 24.516 8.233 24.516 17.98zM325.942 421.6H186.058v-44.581h139.885V421.6zM496 330.888c0 16.614-13.517 30.131-30.131 30.131H46.131C29.517 361.019 16 347.502 16 330.888V68.568c0-16.614 13.517-30.13 30.131-30.13h419.738c16.614 0 30.131 13.517 30.131 30.13v262.32zm-343.009-89.426c13.159 0 23.865-10.706 23.865-23.865 0-2.619-.43-5.138-1.213-7.498l33.207-25.857a23.718 23.718 0 0 0 12.814 3.748c8.601 0 16.152-4.575 20.353-11.418l24.678 5.181c1.573 11.646 11.572 20.655 23.642 20.655 13.159 0 23.864-10.706 23.864-23.865 0-3.192-.635-6.237-1.776-9.022l35.162-31.448a23.716 23.716 0 0 0 11.421 2.917c13.159 0 23.865-10.706 23.865-23.865S372.167 93.26 359.008 93.26s-23.864 10.706-23.864 23.865c0 3.192.635 6.237 1.776 9.023l-35.162 31.448a23.716 23.716 0 0 0-11.421-2.917c-8.601 0-16.151 4.575-20.352 11.417l-24.678-5.181c-1.574-11.645-11.573-20.654-23.643-20.654-13.159 0-23.865 10.706-23.865 23.864 0 2.62.431 5.139 1.214 7.499l-33.207 25.857a23.718 23.718 0 0 0-12.814-3.748c-13.159 0-23.864 10.706-23.864 23.865s10.704 23.864 23.863 23.864zM359.008 109.26c4.337 0 7.865 3.528 7.865 7.865 0 4.336-3.528 7.865-7.865 7.865-4.336 0-7.864-3.528-7.864-7.865s3.528-7.865 7.864-7.865zm-68.671 61.419c4.336 0 7.864 3.528 7.864 7.864 0 4.337-3.528 7.865-7.864 7.865s-7.864-3.528-7.864-7.865c0-4.336 3.528-7.864 7.864-7.864zm-68.673-14.419c4.337 0 7.865 3.528 7.865 7.864 0 4.337-3.528 7.865-7.865 7.865s-7.865-3.528-7.865-7.865c0-4.336 3.528-7.864 7.865-7.864zm-68.673 53.472c4.337 0 7.865 3.528 7.865 7.865s-3.528 7.865-7.865 7.865c-4.336 0-7.864-3.528-7.864-7.865 0-4.336 3.528-7.865 7.864-7.865z"></path>
</svg>
