<svg xmlns="http://www.w3.org/2000/svg" fill-rule="evenodd" clip-rule="evenodd" image-rendering="optimizeQuality" shape-rendering="geometricPrecision" text-rendering="geometricPrecision" viewBox="0 0 1707 1707" id="marketstore">
  <defs>
    <linearGradient id="a" x1="719.24" x2="987.421" y1="-225.969" y2="1497.51" gradientUnits="userSpaceOnUse">
      <stop offset="0" stop-color="#1e61c6" class="stopColor1e8ac6 svgShape"></stop>
      <stop offset=".302" stop-color="#222831" class="stopColor834fbc svgShape"></stop>
      <stop offset="1" stop-color="#f96d00" class="stopColore813b1 svgShape"></stop>
    </linearGradient>
  </defs>
  <path fill="url(#a)" d="M411 -151l885 0 0 103 -885 0 0 -103zm360 1067l-356 0c-11,0 -20,9 -20,20l0 337 -45 0c-26,0 -26,40 0,40 162,0 324,0 485,0 27,0 27,-40 0,-40l-44 0 0 -337c0,-11 -9,-20 -20,-20zm-336 40l316 0 0 317 -316 0 0 -317zm30 -964l232 0 0 425 -232 0 0 -425zm272 425l0 -425 232 0 0 425 -232 0zm272 0l0 -425 232 0 0 425 -232 0zm-770 40c254,2 1105,0 1274,0l0 156c0,41 -13,78 -35,105 -79,97 -197,15 -197,-105l-40 0c0,41 -13,78 -35,105 -74,92 -197,23 -197,-105l-40 0c0,41 -13,78 -35,105 -74,92 -197,23 -197,-105l-40 0c0,41 -13,78 -35,105 -74,92 -197,23 -197,-105l-40 0c0,41 -13,78 -35,105 -85,105 -197,4 -197,-105l0 -156 46 0zm1042 -40l0 -425 35 0 15 0c38,0 57,60 68,94l107 331 -225 0zm-891 -425l35 0 0 425 -224 0 107 -331c11,-34 29,-94 67,-94l15 0zm-236 443l0 0zm237 -626c-12,0 -20,9 -20,20l0 124c-61,3 -85,70 -101,121l-115 356c0,0 -1,1 -1,2l0 0 0 0 0 1 0 0 0 0 0 0 0 1 0 0 0 0 0 0 0 1 0 0 0 0 0 0c-1,1 -1,2 -1,3l0 175c0,64 24,114 59,146l0 663 -192 0c-26,0 -26,40 0,40l1667 0c26,0 26,-40 0,-40l-192 0 0 -663c34,-32 58,-82 58,-146l0 -176c0,-3 -1,-7 -2,-9 -16,-55 -103,-320 -114,-354 -17,-51 -41,-118 -101,-121l0 -124c0,-11 -9,-20 -20,-20l-925 0zm-139 977c67,31 150,11 193,-82 60,128 213,128 272,0 60,128 213,128 272,0 60,128 212,128 272,0 44,93 127,113 194,82l0 632 -79 0 0 -482c0,-11 -9,-20 -20,-20l-355 0c-11,0 -20,9 -20,20l0 482 -729 0 0 -632zm769 170l315 0 0 462 -315 0 0 -462z"></path>
</svg>
