<svg xmlns="http://www.w3.org/2000/svg" viewBox="0 0 144 144" id="Media">
  <path fill="none" stroke="#3d6db4" stroke-linecap="round" stroke-linejoin="round" stroke-miterlimit="10" d="M30.169 64.158v-24.67a3.876 3.876 0 0 1 3.865-3.865h75.472a3.876 3.876 0 0 1 3.865 3.865v11.125m0 36.467v18.913a3.876 3.876 0 0 1-3.865 3.865H34.034a3.876 3.876 0 0 1-3.865-3.865V92.289" class="colorStroke3d6cb4 svgStroke"></path>
  <path fill="#5281c8" d="M30.169 43.436V39.6a3.988 3.988 0 0 1 3.977-3.977h75.25a3.988 3.988 0 0 1 3.977 3.977v3.836H30.169z" opacity=".3" class="color528ac8 svgShape"></path>
  <path fill="none" stroke="#3d6db4" stroke-linecap="round" stroke-linejoin="round" stroke-miterlimit="10" d="M30.169 43.436V39.6a3.988 3.988 0 0 1 3.977-3.977h75.25a3.988 3.988 0 0 1 3.977 3.977v3.836H30.169z" class="colorStroke3d6cb4 svgStroke"></path>
  <circle cx="35.238" cy="39.53" r=".88" fill="#3d6db4" class="color3d6cb4 svgShape"></circle>
  <circle cx="38.754" cy="39.53" r=".88" fill="#3d6db4" class="color3d6cb4 svgShape"></circle>
  <path fill="#5281c8" d="M106.926 59.673H36.614a2.425 2.425 0 0 1-2.417-2.417v-5.238a2.425 2.425 0 0 1 2.417-2.417h70.311a2.425 2.425 0 0 1 2.417 2.417v5.238a2.424 2.424 0 0 1-2.416 2.417zm0 17.321H36.614a2.425 2.425 0 0 1-2.417-2.417v-5.238a2.425 2.425 0 0 1 2.417-2.417h70.311a2.424 2.424 0 0 1 2.417 2.417v5.238a2.423 2.423 0 0 1-2.416 2.417zm0 17.322H36.614a2.425 2.425 0 0 1-2.417-2.417v-5.238a2.425 2.425 0 0 1 2.417-2.417h70.311a2.425 2.425 0 0 1 2.417 2.417V91.9a2.423 2.423 0 0 1-2.416 2.416z" opacity=".3" class="color528ac8 svgShape"></path>
  <circle cx="42.27" cy="39.53" r=".88" fill="#3d6db4" class="color3d6cb4 svgShape"></circle>
  <path fill="#f96d00" stroke="#3d6db4" stroke-linecap="round" stroke-linejoin="round" stroke-miterlimit="10" d="M130.558 50.555H97.374c-5.731 0-10.514 4.785-10.514 10.515v15.158c0 5.731 4 10.852 10 10.852h0v9.465l10.769-8.99h22.929c5.731 0 10.302-5.597 10.302-11.327V61.07c0-5.73-4.571-10.515-10.302-10.515zm-103.541 14h25.952c4.482 0 7.891 3.079 7.891 7.561V83.97c0 4.291-3.451 7.859-7.648 8.155.001.02-.352.02-.352.02v7.714l-7.912-7.304H27.017c-4.482 0-8.157-4.103-8.157-8.585V72.116c0-4.482 3.675-7.561 8.157-7.561z" class="colorffffff svgShape colorStroke3d6cb4 svgStroke"></path>
  <path fill="none" stroke="#3d6db4" stroke-linecap="round" stroke-linejoin="round" stroke-miterlimit="10" d="M27.017 64.555h25.952c4.482 0 7.891 3.079 7.891 7.561V83.97c0 4.291-3.451 7.859-7.648 8.155.001.02-.352.02-.352.02v7.714l-7.912-7.304H27.017c-4.482 0-8.157-4.103-8.157-8.585V72.116c0-4.482 3.675-7.561 8.157-7.561z" class="colorStroke3d6cb4 svgStroke"></path>
  <path fill="#f96d00" stroke="#3d6db4" stroke-linecap="round" stroke-linejoin="round" stroke-miterlimit="10" d="M25.36 71.555h27M25.36 77.555h23M25.36 83.555h16M96.36 59.555h34M96.36 67.555h25M96.36 74.555h17" class="colorffffff svgShape colorStroke3d6cb4 svgStroke"></path>
  <path fill="none" stroke="#3d6db4" stroke-linecap="round" stroke-linejoin="round" stroke-miterlimit="10" d="M6.751 35.481v9.767M1.868 40.364h9.767M17.886 51.071v5.847M14.963 53.995h5.847" class="colorStroke3d6cb4 svgStroke"></path>
  <g fill="none" stroke="#3d6db4" stroke-linecap="round" stroke-linejoin="round" stroke-miterlimit="10" class="colorStroke3d6cb4 svgStroke">
    <path d="M133.937 97.06v9.767M129.054 101.943h9.767" fill="#222831" class="color000000 svgShape"></path>
  </g>
</svg>
