<svg xmlns="http://www.w3.org/2000/svg" xmlns:xlink="http://www.w3.org/1999/xlink" viewBox="0 0 64 64" id="Money">
  <defs>
    <linearGradient id="a" x1="10.987" x2="60.987" y1="65.575" y2="7.575" gradientUnits="userSpaceOnUse">
      <stop offset="0" stop-color="#f96d00" class="stopColorfff200 svgShape"></stop>
      <stop offset="1" stop-color="#222831" class="stopColorcd118c svgShape"></stop>
    </linearGradient>
    <linearGradient xlink:href="#a" id="b" x1="11.049" x2="61.049" y1="65.628" y2="7.628"></linearGradient>
    <linearGradient xlink:href="#a" id="c" x1="3.688" x2="53.688" y1="59.282" y2="1.282"></linearGradient>
    <linearGradient xlink:href="#a" id="d" x1="3.529" x2="53.529" y1="59.146" y2="1.146"></linearGradient>
    <linearGradient xlink:href="#a" id="e" x1="5.666" x2="55.666" y1="60.988" y2="2.988"></linearGradient>
    <linearGradient xlink:href="#a" id="f" x1="5.824" x2="55.824" y1="61.124" y2="3.124"></linearGradient>
    <linearGradient xlink:href="#a" id="g" x1="16.308" x2="66.308" y1="70.162" y2="12.162"></linearGradient>
    <linearGradient xlink:href="#a" id="h" x1="16.15" x2="66.15" y1="70.026" y2="12.026"></linearGradient>
    <linearGradient xlink:href="#a" id="i" x1="18.286" x2="68.286" y1="71.868" y2="13.868"></linearGradient>
    <linearGradient xlink:href="#a" id="j" x1="18.445" x2="68.445" y1="72.004" y2="14.004"></linearGradient>
  </defs>
  <path fill="url(#a)" d="M61.577,20.423,43.9,2.743a1,1,0,0,0-1.414,0l-26.87,26.87a1,1,0,0,0,0,1.414l.973.973H3a1,1,0,0,0-1,1V61a1,1,0,0,0,1,1H51a1,1,0,0,0,1-1V33a.993.993,0,0,0-.656-.93L61.577,21.837A1,1,0,0,0,61.577,20.423ZM21.714,32,46.02,7.694,47.436,9.11,24.546,32ZM43.19,4.864,44.606,6.28,19.15,31.736,17.734,30.32ZM50,60H4V34H50ZM48.586,32H27.374L48.85,10.524,59.456,21.13Z"></path>
  <path fill="url(#b)" d="M47.435,17.6A3.96,3.96,0,0,0,46.306,20,3.96,3.96,0,0,0,43.9,21.13a4,4,0,0,0,5.657,5.657,3.961,3.961,0,0,0,1.131-2.4,3.958,3.958,0,0,0,2.405-1.131,4,4,0,0,0,0-5.656A4.1,4.1,0,0,0,47.435,17.6Zm-2.122,7.778a1.99,1.99,0,0,1,1.268-3.4,3.971,3.971,0,0,0,2.132,2.137,1.978,1.978,0,0,1-.571,1.263A2.05,2.05,0,0,1,45.313,25.373Zm6.365-6.364a2,2,0,0,1,0,2.828,1.976,1.976,0,0,1-1.272.554,3.959,3.959,0,0,0-2.128-2.115,1.993,1.993,0,0,1,3.4-1.267Z"></path>
  <rect width="2" height="2" x="15" y="44" fill="url(#c)"></rect>
  <rect width="2" height="2" x="13" y="46" fill="url(#d)"></rect>
  <rect width="2" height="2" x="15" y="48" fill="url(#e)"></rect>
  <rect width="2" height="2" x="17" y="46" fill="url(#f)"></rect>
  <rect width="2" height="2" x="37" y="44" fill="url(#g)"></rect>
  <rect width="2" height="2" x="35" y="46" fill="url(#h)"></rect>
  <rect width="2" height="2" x="37" y="48" fill="url(#i)"></rect>
  <rect width="2" height="2" x="39" y="46" fill="url(#j)"></rect>
  <path fill="url(#a)" d="M6,53a5.006,5.006,0,0,1,5,5,1,1,0,0,0,1,1H42a1,1,0,0,0,1-1,5.006,5.006,0,0,1,5-5,1,1,0,0,0,1-1V42a1,1,0,0,0-1-1,4.956,4.956,0,0,1-4.269-2.4A4.885,4.885,0,0,1,43,36a1,1,0,0,0-1-1H12a1,1,0,0,0-1,1,5.006,5.006,0,0,1-5,5,1,1,0,0,0-1,1V52A1,1,0,0,0,6,53ZM7,42.929A7.018,7.018,0,0,0,12.929,37H41.072A7.022,7.022,0,0,0,47,42.93v8.141A7.018,7.018,0,0,0,41.071,57H12.929A7.018,7.018,0,0,0,7,51.071Z"></path>
  <path fill="url(#a)" d="M25,49H23a3,3,0,0,0,3,3v1h2V52a3,3,0,0,0,0-6V44a1,1,0,0,1,1,1h2a3,3,0,0,0-3-3V41H26v1a3,3,0,0,0,0,6v2A1,1,0,0,1,25,49Zm0-4a1,1,0,0,1,1-1v2A1,1,0,0,1,25,45Zm3,3a1,1,0,0,1,0,2Z"></path>
</svg>
