<svg xmlns="http://www.w3.org/2000/svg" xmlns:xlink="http://www.w3.org/1999/xlink" viewBox="0 0 64 64" id="parenting">
  <defs>
    <linearGradient id="a" x1="16.774" x2="16.294" y1="56.358" y2="8.118" gradientUnits="userSpaceOnUse">
      <stop offset="0" stop-color="#222831" class="stopColor651b0e svgShape"></stop>
      <stop offset="1" stop-color="#c96112" class="stopColore15a69 svgShape"></stop>
    </linearGradient>
    <linearGradient xlink:href="#a" id="b" x1="16.199" x2="15.719" y1="56.364" y2="8.124"></linearGradient>
    <linearGradient xlink:href="#a" id="c" x1="48.77" x2="48.29" y1="56.04" y2="7.8"></linearGradient>
    <linearGradient xlink:href="#a" id="d" x1="50.442" x2="49.962" y1="56.023" y2="7.783"></linearGradient>
    <linearGradient xlink:href="#a" id="e" x1="45.822" x2="45.342" y1="56.069" y2="7.829"></linearGradient>
    <linearGradient xlink:href="#a" id="f" x1="48.194" x2="47.714" y1="56.046" y2="7.806"></linearGradient>
    <linearGradient xlink:href="#a" id="g" x1="32.179" x2="31.699" y1="56.205" y2="7.965"></linearGradient>
    <linearGradient xlink:href="#a" id="h" x1="32.234" x2="31.754" y1="56.204" y2="7.964"></linearGradient>
    <linearGradient xlink:href="#a" id="i" x1="32.177" x2="31.697" y1="56.205" y2="7.965"></linearGradient>
  </defs>
  <path fill="url(#a)" d="M16.39 23.75a6 6 0 1 1 6-6 6.006 6.006 0 0 1-6 6Zm0-10a4 4 0 1 0 4 4 4 4 0 0 0-4-4Z"></path>
  <path fill="url(#b)" d="M18.35 51.75a3.274 3.274 0 0 1-2.281-.924 3.269 3.269 0 0 1-2.279.924h-.12a3.284 3.284 0 0 1-3.28-3.28v-9.211a3.266 3.266 0 0 1-1.72.491H7.625a3.281 3.281 0 0 1-3.089-4.383l1.94-7.222a.983.983 0 0 1 .024-.077 5.01 5.01 0 0 1 4.709-3.318h10.163a5.021 5.021 0 0 1 4.808 3.627l1.362 7.283a3.193 3.193 0 0 1-.557 2.785 3.253 3.253 0 0 1-2.618 1.3h-1.193a3.274 3.274 0 0 1-1.544-.385v9.1a3.284 3.284 0 0 1-3.28 3.29Zm-1.281-3.28a1.281 1.281 0 0 0 2.561 0V31.63a1 1 0 0 1 .969-1 1.02 1.02 0 0 1 1.029.938l.325 5.285a1.277 1.277 0 0 0 1.221.9h1.193a1.28 1.28 0 0 0 1.233-1.635l-1.363-7.283a3 3 0 0 0-2.863-2.085H11.209A3.006 3.006 0 0 0 8.4 28.706l-1.957 7.257a1.317 1.317 0 0 0 .136 1.244 1.263 1.263 0 0 0 1.046.543H8.67a1.286 1.286 0 0 0 1.207-.85l.518-5.245a.975.975 0 0 1 1.044-.9 1 1 0 0 1 .951 1V48.47a1.281 1.281 0 0 0 1.28 1.28h.12a1.281 1.281 0 0 0 1.279-1.28v-10.4a1 1 0 1 1 2 0Z"></path>
  <path fill="url(#c)" d="M48.389 23.75a6 6 0 1 1 6-6 6.007 6.007 0 0 1-6 6Zm0-10a4 4 0 1 0 4 4 4 4 0 0 0-4-4Z"></path>
  <path fill="url(#d)" d="M50.345 51.75a3.284 3.284 0 0 1-3.279-3.28 1 1 0 0 1 2 0 1.277 1.277 0 0 0 2.183.9 1.245 1.245 0 0 0 .377-.9v-4.22a1 1 0 0 1 2 0v4.22a3.286 3.286 0 0 1-3.281 3.28Z"></path>
  <path fill="url(#e)" d="M45.786 51.75h-.12a3.285 3.285 0 0 1-3.281-3.28v-4.22a1 1 0 0 1 2 0v4.22a1.282 1.282 0 0 0 1.281 1.28h.12a1.281 1.281 0 0 0 1.28-1.28v-4.22a1 1 0 0 1 2 0v4.22a3.284 3.284 0 0 1-3.28 3.28Z"></path>
  <path fill="url(#f)" d="M55 45.25H41a1 1 0 0 1-.963-1.271l1.2-4.279a3.365 3.365 0 0 1-.57.05h-1.04a3.281 3.281 0 0 1-3.093-4.385l1.946-7.225a5.005 5.005 0 0 1 4.726-3.39h10.17a5.014 5.014 0 0 1 4.8 3.626l1.362 7.28a3.2 3.2 0 0 1-.553 2.789 3.251 3.251 0 0 1-2.62 1.3h-1.19a3.485 3.485 0 0 1-.41-.025l1.194 4.254A1 1 0 0 1 55 45.25Zm-12.68-2h11.36l-1.616-5.75a3.72 3.72 0 0 1-.069-.241c0-.012-.006-.023-.008-.034l-.324-1.156a.988.988 0 0 1-.037-.27V31.63a1 1 0 0 1 2-.063l.35 5.339a1.274 1.274 0 0 0 1.2.844h1.191a1.276 1.276 0 0 0 1.228-1.634l-1.362-7.282a2.99 2.99 0 0 0-2.856-2.084H43.206a2.984 2.984 0 0 0-2.817 1.982l-1.948 7.229a1.323 1.323 0 0 0 .136 1.247 1.267 1.267 0 0 0 1.049.542h1.04a1.293 1.293 0 0 0 1.215-.851l.509-5.246a1 1 0 0 1 1.995.1v4a.99.99 0 0 1-.037.271Z"></path>
  <path fill="url(#g)" d="M35.166 39.11h-6.34a1 1 0 0 1-.507-.137l-2-1.175a.918.918 0 0 1-.285-.146.978.978 0 0 1-.22-1.379l.029-.04a1 1 0 0 1 1.309-.265L29.1 37.11h5.8l1.945-1.142a1 1 0 0 1 1.3.259 1.021 1.021 0 0 1-.179 1.42 1.057 1.057 0 0 1-.313.164l-1.979 1.162a1 1 0 0 1-.508.137Z"></path>
  <path fill="url(#h)" d="M32 35.65a3.4 3.4 0 1 1 3.4-3.4 3.4 3.4 0 0 1-3.4 3.4Zm0-4.8a1.4 1.4 0 1 0 1.4 1.4 1.4 1.4 0 0 0-1.4-1.4Z"></path>
  <path fill="url(#i)" d="M33.5 52.25a2.489 2.489 0 0 1-1.5-.5 2.5 2.5 0 0 1-4-2v-4.771a3.4 3.4 0 0 1-.75-2.129v-1.426l-2.564-2.1a1 1 0 0 1 1.267-1.547l2.931 2.4a1 1 0 0 1 .366.773v1.9a1.381 1.381 0 0 0 .432 1.009 1 1 0 0 1 .318.731v5.16a.5.5 0 0 0 1 0v-4.5a1 1 0 0 1 2 0v4.5a.5.5 0 0 0 1 0v-5.16a1 1 0 0 1 .317-.731 1.378 1.378 0 0 0 .433-1.009v-1.9a1 1 0 0 1 .366-.773l2.94-2.41a1 1 0 1 1 1.268 1.546l-2.574 2.111v1.426a3.4 3.4 0 0 1-.75 2.129v4.771a2.5 2.5 0 0 1-2.5 2.5Z"></path>
</svg>
