<svg xmlns="http://www.w3.org/2000/svg" fill="none" viewBox="0 0 96 96" id="PieGraph">
  <mask id="a" width="83" height="82" x="6.5" y="6.5" fill="#000" maskUnits="userSpaceOnUse">
    <rect width="83" height="82" x="6.5" y="6.5" fill="#fff"></rect>
    <path fill-rule="evenodd" d="M12.5 47.5C12.5 28.2011 28.3626 12.5 48 12.5C49.3807 12.5 50.5 11.3807 50.5 10C50.5 8.61929 49.3807 7.5 48 7.5C25.6638 7.5 7.5 25.3775 7.5 47.5C7.5 69.6225 25.6638 87.5 48 87.5C49.3807 87.5 50.5 86.3807 50.5 85C50.5 83.6193 49.3807 82.5 48 82.5C28.3626 82.5 12.5 66.7989 12.5 47.5ZM56.5172 8.38657C55.1664 8.10093 53.8397 8.96445 53.5541 10.3153C53.2684 11.6661 54.132 12.9928 55.4828 13.2784C59.3334 14.0926 62.9518 15.5228 66.2278 17.4594C74.6431 22.4342 80.7827 30.7397 82.7911 40.5037C83.0693 41.8561 84.3912 42.7269 85.7436 42.4487C87.096 42.1706 87.9668 40.8487 87.6886 39.4963C85.3859 28.3016 78.358 18.822 68.7722 13.1552C65.0357 10.9464 60.9082 9.31508 56.5172 8.38657ZM88.4114 50.1664C88.5032 48.7887 87.4609 47.5974 86.0833 47.5055C84.7056 47.4137 83.5143 48.456 83.4224 49.8336C83.171 53.6034 82.3147 57.2078 80.9487 60.5555C78.6132 66.2789 74.784 71.2602 69.9308 75.0246C68.8398 75.8708 68.6413 77.4412 69.4876 78.5322C70.3338 79.6232 71.9042 79.8216 72.9952 78.9754C78.5271 74.6846 82.9039 68.998 85.5781 62.4445C87.143 58.6093 88.1236 54.4801 88.4114 50.1664ZM65.5752 83.5469C66.8217 82.9531 67.3508 81.4612 66.757 80.2147C66.1631 78.9683 64.6712 78.4392 63.4248 79.033C60.6483 80.3558 57.6705 81.3325 54.5482 81.9062C53.1902 82.1558 52.2916 83.4589 52.5412 84.8169C52.7907 86.1749 54.0939 87.0735 55.4518 86.8239C59.0113 86.1698 62.4079 85.0559 65.5752 83.5469ZM51.1572 24.5738C51.1572 22.8579 50.3545 22 48.7492 22C47.1438 22 46.3411 22.8579 46.3411 24.5738V27.243C42.796 27.6879 39.9866 28.8318 37.913 30.6748C35.9064 32.5178 34.903 34.8692 34.903 37.729C34.903 39.7626 35.4716 41.4467 36.6087 42.7813C37.7458 44.1159 39.1839 45.1645 40.9231 45.9271C42.6622 46.6897 44.4682 47.2617 46.3411 47.643V59.5589C43.4649 58.9234 41.2575 57.7794 39.7191 56.1271C39.4515 55.7458 39.0836 55.4916 38.6154 55.3645C38.214 55.1738 37.7793 55.0785 37.311 55.0785C36.4415 55.0785 35.6722 55.3963 35.0033 56.0318C34.3344 56.6037 34 57.271 34 58.0336C34 58.7327 34.2341 59.4 34.7023 60.0355C35.9064 61.5607 37.5452 62.7682 39.6187 63.6579C41.6923 64.4841 43.9331 65.0243 46.3411 65.2785V70.4262C46.3411 72.1421 47.1438 73 48.7492 73C50.3545 73 51.1572 72.1421 51.1572 70.4262V65.3738C54.9699 65.0561 58.0468 63.9121 60.388 61.9421C62.796 59.9084 64 57.3346 64 54.2206C64 51.615 63.2642 49.5495 61.7926 48.0243C60.388 46.4991 58.6823 45.3551 56.6756 44.5925C54.7358 43.8299 52.8963 43.2579 51.1572 42.8766V32.6766C53.3645 32.9308 55.3043 33.7252 56.9766 35.0598C57.7124 35.5047 58.4482 35.7271 59.1839 35.7271C59.9866 35.7271 60.689 35.4729 61.291 34.9645C61.893 34.3925 62.194 33.7252 62.194 32.9626C62.194 32.0729 61.7926 31.3103 60.99 30.6748C58.515 28.5776 55.2375 27.4019 51.1572 27.1477V24.5738ZM51.1572 59.8449V48.5963C52.9632 49.0411 54.4682 49.6766 55.6722 50.5028C56.9431 51.329 57.5786 52.5364 57.5786 54.1252C57.5786 55.6505 56.9766 56.9215 55.7726 57.9383C54.6355 58.9551 53.097 59.5907 51.1572 59.8449ZM41.3244 37.6336C41.3244 35.028 42.9967 33.4393 46.3411 32.8673V41.828C44.7358 41.3832 43.4983 40.8748 42.6288 40.3028C41.7592 39.6673 41.3244 38.7776 41.3244 37.6336Z" clip-rule="evenodd"></path>
  </mask>
  <path fill="url(#paint0_linear_645_8505)" fill-rule="evenodd" d="M12.5 47.5C12.5 28.2011 28.3626 12.5 48 12.5C49.3807 12.5 50.5 11.3807 50.5 10C50.5 8.61929 49.3807 7.5 48 7.5C25.6638 7.5 7.5 25.3775 7.5 47.5C7.5 69.6225 25.6638 87.5 48 87.5C49.3807 87.5 50.5 86.3807 50.5 85C50.5 83.6193 49.3807 82.5 48 82.5C28.3626 82.5 12.5 66.7989 12.5 47.5ZM56.5172 8.38657C55.1664 8.10093 53.8397 8.96445 53.5541 10.3153C53.2684 11.6661 54.132 12.9928 55.4828 13.2784C59.3334 14.0926 62.9518 15.5228 66.2278 17.4594C74.6431 22.4342 80.7827 30.7397 82.7911 40.5037C83.0693 41.8561 84.3912 42.7269 85.7436 42.4487C87.096 42.1706 87.9668 40.8487 87.6886 39.4963C85.3859 28.3016 78.358 18.822 68.7722 13.1552C65.0357 10.9464 60.9082 9.31508 56.5172 8.38657ZM88.4114 50.1664C88.5032 48.7887 87.4609 47.5974 86.0833 47.5055C84.7056 47.4137 83.5143 48.456 83.4224 49.8336C83.171 53.6034 82.3147 57.2078 80.9487 60.5555C78.6132 66.2789 74.784 71.2602 69.9308 75.0246C68.8398 75.8708 68.6413 77.4412 69.4876 78.5322C70.3338 79.6232 71.9042 79.8216 72.9952 78.9754C78.5271 74.6846 82.9039 68.998 85.5781 62.4445C87.143 58.6093 88.1236 54.4801 88.4114 50.1664ZM65.5752 83.5469C66.8217 82.9531 67.3508 81.4612 66.757 80.2147C66.1631 78.9683 64.6712 78.4392 63.4248 79.033C60.6483 80.3558 57.6705 81.3325 54.5482 81.9062C53.1902 82.1558 52.2916 83.4589 52.5412 84.8169C52.7907 86.1749 54.0939 87.0735 55.4518 86.8239C59.0113 86.1698 62.4079 85.0559 65.5752 83.5469ZM51.1572 24.5738C51.1572 22.8579 50.3545 22 48.7492 22C47.1438 22 46.3411 22.8579 46.3411 24.5738V27.243C42.796 27.6879 39.9866 28.8318 37.913 30.6748C35.9064 32.5178 34.903 34.8692 34.903 37.729C34.903 39.7626 35.4716 41.4467 36.6087 42.7813C37.7458 44.1159 39.1839 45.1645 40.9231 45.9271C42.6622 46.6897 44.4682 47.2617 46.3411 47.643V59.5589C43.4649 58.9234 41.2575 57.7794 39.7191 56.1271C39.4515 55.7458 39.0836 55.4916 38.6154 55.3645C38.214 55.1738 37.7793 55.0785 37.311 55.0785C36.4415 55.0785 35.6722 55.3963 35.0033 56.0318C34.3344 56.6037 34 57.271 34 58.0336C34 58.7327 34.2341 59.4 34.7023 60.0355C35.9064 61.5607 37.5452 62.7682 39.6187 63.6579C41.6923 64.4841 43.9331 65.0243 46.3411 65.2785V70.4262C46.3411 72.1421 47.1438 73 48.7492 73C50.3545 73 51.1572 72.1421 51.1572 70.4262V65.3738C54.9699 65.0561 58.0468 63.9121 60.388 61.9421C62.796 59.9084 64 57.3346 64 54.2206C64 51.615 63.2642 49.5495 61.7926 48.0243C60.388 46.4991 58.6823 45.3551 56.6756 44.5925C54.7358 43.8299 52.8963 43.2579 51.1572 42.8766V32.6766C53.3645 32.9308 55.3043 33.7252 56.9766 35.0598C57.7124 35.5047 58.4482 35.7271 59.1839 35.7271C59.9866 35.7271 60.689 35.4729 61.291 34.9645C61.893 34.3925 62.194 33.7252 62.194 32.9626C62.194 32.0729 61.7926 31.3103 60.99 30.6748C58.515 28.5776 55.2375 27.4019 51.1572 27.1477V24.5738ZM51.1572 59.8449V48.5963C52.9632 49.0411 54.4682 49.6766 55.6722 50.5028C56.9431 51.329 57.5786 52.5364 57.5786 54.1252C57.5786 55.6505 56.9766 56.9215 55.7726 57.9383C54.6355 58.9551 53.097 59.5907 51.1572 59.8449ZM41.3244 37.6336C41.3244 35.028 42.9967 33.4393 46.3411 32.8673V41.828C44.7358 41.3832 43.4983 40.8748 42.6288 40.3028C41.7592 39.6673 41.3244 38.7776 41.3244 37.6336Z" clip-rule="evenodd"></path>
  <path fill="url(#paint1_linear_645_8505)" d="M53.5541 10.3153L53.2606 10.2532L53.2606 10.2532L53.5541 10.3153ZM56.5172 8.38657L56.5793 8.09306L56.5172 8.38657ZM55.4828 13.2784L55.4207 13.5719L55.4207 13.5719L55.4828 13.2784ZM66.2278 17.4594L66.0751 17.7176L66.0751 17.7176L66.2278 17.4594ZM82.7911 40.5037L83.085 40.4432L83.085 40.4432L82.7911 40.5037ZM85.7436 42.4487L85.6831 42.1549L85.6831 42.1549L85.7436 42.4487ZM87.6886 39.4963L87.3947 39.5567L87.3947 39.5567L87.6886 39.4963ZM68.7722 13.1552L68.6196 13.4135L68.6196 13.4135L68.7722 13.1552ZM86.0833 47.5055L86.0633 47.8049L86.0633 47.8049L86.0833 47.5055ZM88.4114 50.1664L88.7107 50.1863L88.7107 50.1863L88.4114 50.1664ZM83.4224 49.8336L83.1231 49.8137L83.1231 49.8137L83.4224 49.8336ZM80.9487 60.5555L81.2264 60.6688L81.2264 60.6688L80.9487 60.5555ZM69.9308 75.0246L70.1146 75.2616L70.1146 75.2616L69.9308 75.0246ZM69.4876 78.5322L69.2505 78.7161L69.2505 78.7161L69.4876 78.5322ZM72.9952 78.9754L72.8113 78.7384L72.8113 78.7384L72.9952 78.9754ZM85.5781 62.4445L85.8558 62.5579L85.8558 62.5579L85.5781 62.4445ZM66.757 80.2147L67.0278 80.0857L67.0278 80.0857L66.757 80.2147ZM65.5752 83.5469L65.4462 83.2761L65.4462 83.2761L65.5752 83.5469ZM63.4248 79.033L63.5538 79.3039L63.5538 79.3039L63.4248 79.033ZM54.5482 81.9062L54.4939 81.6112L54.4939 81.6112L54.5482 81.9062ZM52.5412 84.8169L52.8362 84.7627L52.8362 84.7627L52.5412 84.8169ZM55.4518 86.8239L55.5061 87.119L55.5061 87.119L55.4518 86.8239ZM46.3411 27.243L46.3785 27.5407L46.6411 27.5077V27.243H46.3411ZM37.913 30.6748L37.7137 30.4505L37.7101 30.4538L37.913 30.6748ZM36.6087 42.7813L36.837 42.5867L36.837 42.5867L36.6087 42.7813ZM40.9231 45.9271L41.0436 45.6524L41.0436 45.6524L40.9231 45.9271ZM46.3411 47.643H46.6411V47.3979L46.401 47.349L46.3411 47.643ZM46.3411 59.5589L46.2764 59.8518L46.6411 59.9324V59.5589H46.3411ZM39.7191 56.1271L39.4735 56.2994L39.4854 56.3164L39.4995 56.3315L39.7191 56.1271ZM38.6154 55.3645L38.4867 55.6355L38.5109 55.647L38.5368 55.654L38.6154 55.3645ZM35.0033 56.0318L35.1983 56.2598L35.2043 56.2547L35.21 56.2493L35.0033 56.0318ZM34.7023 60.0355L34.4607 60.2136L34.4669 60.2214L34.7023 60.0355ZM39.6187 63.6579L39.5004 63.9337L39.5077 63.9366L39.6187 63.6579ZM46.3411 65.2785H46.6411V65.0085L46.3726 64.9802L46.3411 65.2785ZM51.1572 65.3738L51.1323 65.0749L50.8572 65.0978V65.3738H51.1572ZM60.388 61.9421L60.5811 62.1716L60.5815 62.1713L60.388 61.9421ZM61.7926 48.0243L61.5719 48.2276L61.5767 48.2326L61.7926 48.0243ZM56.6756 44.5925L56.5658 44.8717L56.569 44.873L56.6756 44.5925ZM51.1572 42.8766H50.8572V43.118L51.0929 43.1697L51.1572 42.8766ZM51.1572 32.6766L51.1915 32.3786L50.8572 32.3401V32.6766H51.1572ZM56.9766 35.0598L56.7895 35.2943L56.8047 35.3065L56.8214 35.3165L56.9766 35.0598ZM61.291 34.9645L61.4845 35.1937L61.4912 35.188L61.4976 35.182L61.291 34.9645ZM60.99 30.6748L60.7959 30.9038L60.8037 30.91L60.99 30.6748ZM51.1572 27.1477H50.8572V27.4296L51.1385 27.4471L51.1572 27.1477ZM51.1572 48.5963L51.2289 48.305L50.8572 48.2134V48.5963H51.1572ZM51.1572 59.8449H50.8572V60.1867L51.1962 60.1423L51.1572 59.8449ZM55.6722 50.5028L55.5025 50.7502L55.5087 50.7543L55.6722 50.5028ZM55.7726 57.9383L55.5789 57.709L55.5726 57.7147L55.7726 57.9383ZM46.3411 32.8673H46.6411V32.5116L46.2906 32.5716L46.3411 32.8673ZM46.3411 41.828L46.261 42.1171L46.6411 42.2225V41.828H46.3411ZM42.6288 40.3028L42.4517 40.545L42.4577 40.5494L42.4639 40.5534L42.6288 40.3028ZM48 12.2C28.2006 12.2 12.2 28.0318 12.2 47.5H12.8C12.8 28.3705 28.5246 12.8 48 12.8V12.2ZM50.2 10C50.2 11.215 49.215 12.2 48 12.2V12.8C49.5464 12.8 50.8 11.5464 50.8 10H50.2ZM48 7.8C49.215 7.8 50.2 8.78497 50.2 10H50.8C50.8 8.4536 49.5464 7.2 48 7.2V7.8ZM7.8 47.5C7.8 25.547 25.8256 7.8 48 7.8V7.2C25.5019 7.2 7.2 25.208 7.2 47.5H7.8ZM48 87.2C25.8256 87.2 7.8 69.453 7.8 47.5H7.2C7.2 69.792 25.5019 87.8 48 87.8V87.2ZM50.2 85C50.2 86.215 49.215 87.2 48 87.2V87.8C49.5464 87.8 50.8 86.5464 50.8 85H50.2ZM48 82.8C49.215 82.8 50.2 83.785 50.2 85H50.8C50.8 83.4536 49.5464 82.2 48 82.2V82.8ZM12.2 47.5C12.2 66.9682 28.2006 82.8 48 82.8V82.2C28.5246 82.2 12.8 66.6295 12.8 47.5H12.2ZM53.8476 10.3774C54.099 9.18861 55.2664 8.42872 56.4551 8.68008L56.5793 8.09306C55.0663 7.77314 53.5805 8.74028 53.2606 10.2532L53.8476 10.3774ZM55.5449 12.9849C54.3561 12.7335 53.5962 11.5661 53.8476 10.3774L53.2606 10.2532C52.9407 11.7662 53.9078 13.252 55.4207 13.5719L55.5449 12.9849ZM66.3804 17.2011C63.0769 15.2482 59.4279 13.806 55.5449 12.9849L55.4207 13.5719C59.2389 14.3793 62.8268 15.7974 66.0751 17.7176L66.3804 17.2011ZM83.085 40.4432C81.0589 30.5934 74.866 22.2175 66.3804 17.2011L66.0751 17.7176C74.4202 22.651 80.5065 30.8859 82.4973 40.5641L83.085 40.4432ZM85.6831 42.1549C84.493 42.3997 83.3298 41.6334 83.085 40.4432L82.4973 40.5641C82.8088 42.0788 84.2893 43.0541 85.804 42.7426L85.6831 42.1549ZM87.3947 39.5567C87.6395 40.7469 86.8732 41.9101 85.6831 42.1549L85.804 42.7426C87.3187 42.431 88.294 40.9505 87.9824 39.4359L87.3947 39.5567ZM68.6196 13.4135C78.1351 19.0387 85.1097 28.4479 87.3947 39.5567L87.9824 39.4359C85.6621 28.1553 78.5809 18.6053 68.9249 12.897L68.6196 13.4135ZM56.4551 8.68008C60.8137 9.60173 64.9107 11.221 68.6196 13.4135L68.9249 12.897C65.1608 10.6718 61.0027 9.02842 56.5793 8.09306L56.4551 8.68008ZM86.0633 47.8049C87.2756 47.8857 88.1929 48.9341 88.112 50.1464L88.7107 50.1863C88.8136 48.6434 87.6462 47.3091 86.1032 47.2062L86.0633 47.8049ZM83.7218 49.8536C83.8026 48.6413 84.851 47.724 86.0633 47.8049L86.1032 47.2062C84.5603 47.1033 83.226 48.2707 83.1231 49.8137L83.7218 49.8536ZM81.2264 60.6688C82.6044 57.2919 83.4682 53.656 83.7218 49.8536L83.1231 49.8137C82.8738 53.5508 82.025 57.1237 80.6709 60.4421L81.2264 60.6688ZM70.1146 75.2616C75.0086 71.4657 78.8706 66.4421 81.2264 60.6688L80.6709 60.4421C78.3557 66.1158 74.5594 71.0547 69.7469 74.7875L70.1146 75.2616ZM69.7246 78.3484C68.9799 77.3883 69.1546 76.0063 70.1146 75.2616L69.7469 74.7875C68.525 75.7353 68.3027 77.4942 69.2505 78.7161L69.7246 78.3484ZM72.8113 78.7384C71.8513 79.483 70.4693 79.3084 69.7246 78.3484L69.2505 78.7161C70.1983 79.938 71.9572 80.1602 73.1791 79.2125L72.8113 78.7384ZM85.3003 62.3312C82.6464 68.8349 78.3025 74.4792 72.8113 78.7384L73.1791 79.2125C78.7517 74.8901 83.1613 69.1612 85.8558 62.5579L85.3003 62.3312ZM88.112 50.1464C87.8265 54.4275 86.8533 58.5252 85.3003 62.3312L85.8558 62.5579C87.4327 58.6934 88.4208 54.5327 88.7107 50.1863L88.112 50.1464ZM66.4861 80.3438C67.0087 81.4407 66.5431 82.7535 65.4462 83.2761L65.7043 83.8178C67.1003 83.1527 67.6929 81.4818 67.0278 80.0857L66.4861 80.3438ZM63.5538 79.3039C64.6507 78.7813 65.9635 79.2469 66.4861 80.3438L67.0278 80.0857C66.3627 78.6897 64.6918 78.0971 63.2957 78.7622L63.5538 79.3039ZM54.6024 82.2013C57.7509 81.6227 60.7539 80.6378 63.5538 79.3039L63.2957 78.7622C60.5427 80.0738 57.59 81.0422 54.4939 81.6112L54.6024 82.2013ZM52.8362 84.7627C52.6166 83.5677 53.4074 82.4209 54.6024 82.2013L54.4939 81.6112C52.973 81.8907 51.9666 83.3502 52.2461 84.8711L52.8362 84.7627ZM55.3976 86.5289C54.2026 86.7485 53.0558 85.9577 52.8362 84.7627L52.2461 84.8711C52.5256 86.3921 53.9851 87.3985 55.5061 87.119L55.3976 86.5289ZM65.4462 83.2761C62.3023 84.7739 58.9308 85.8796 55.3976 86.5289L55.5061 87.119C59.0917 86.4601 62.5135 85.3379 65.7043 83.8178L65.4462 83.2761ZM48.7492 22.3C49.5003 22.3 50.0099 22.4998 50.3361 22.8484C50.6658 23.2008 50.8572 23.7573 50.8572 24.5738H51.4572C51.4572 23.6744 51.2472 22.944 50.7743 22.4385C50.2978 21.9292 49.6034 21.7 48.7492 21.7V22.3ZM46.6411 24.5738C46.6411 23.7573 46.8325 23.2008 47.1622 22.8484C47.4884 22.4998 47.998 22.3 48.7492 22.3V21.7C47.8949 21.7 47.2006 21.9292 46.7241 22.4385C46.2511 22.944 46.0411 23.6744 46.0411 24.5738H46.6411ZM46.6411 27.243V24.5738H46.0411V27.243H46.6411ZM38.1123 30.899C40.1292 29.1065 42.8763 27.9801 46.3785 27.5407L46.3038 26.9453C42.7157 27.3956 39.8441 28.5571 37.7137 30.4505L38.1123 30.899ZM35.203 37.729C35.203 34.9484 36.1745 32.6788 38.116 30.8957L37.7101 30.4538C35.6382 32.3567 34.603 34.7899 34.603 37.729H35.203ZM36.837 42.5867C35.7534 41.315 35.203 39.7034 35.203 37.729H34.603C34.603 39.8219 35.1897 41.5785 36.3803 42.9759L36.837 42.5867ZM41.0436 45.6524C39.3425 44.9064 37.9423 43.884 36.837 42.5867L36.3803 42.9759C37.5493 44.3478 39.0254 45.4225 40.8026 46.2018L41.0436 45.6524ZM46.401 47.349C44.5488 46.9719 42.7631 46.4064 41.0436 45.6524L40.8026 46.2018C42.5613 46.9731 44.3877 47.5514 46.2813 47.937L46.401 47.349ZM46.6411 59.5589V47.643H46.0411V59.5589H46.6411ZM39.4995 56.3315C41.0904 58.0402 43.3587 59.2071 46.2764 59.8518L46.4059 59.2659C43.5711 58.6396 41.4247 57.5187 39.9386 55.9227L39.4995 56.3315ZM38.5368 55.654C38.9404 55.7636 39.248 55.978 39.4735 56.2994L39.9646 55.9548C39.655 55.5136 39.2268 55.2196 38.694 55.075L38.5368 55.654ZM37.311 55.3785C37.7372 55.3785 38.1277 55.4649 38.4867 55.6355L38.7441 55.0935C38.3004 54.8827 37.8213 54.7785 37.311 54.7785V55.3785ZM35.21 56.2493C35.8269 55.6632 36.5234 55.3785 37.311 55.3785V54.7785C36.3595 54.7785 35.5176 55.1294 34.7967 55.8143L35.21 56.2493ZM34.3 58.0336C34.3 57.3727 34.5847 56.7845 35.1983 56.2598L34.8084 55.8038C34.0842 56.423 33.7 57.1693 33.7 58.0336H34.3ZM34.9439 59.8576C34.5085 59.2666 34.3 58.6605 34.3 58.0336H33.7C33.7 58.8049 33.9597 59.5334 34.4608 60.2135L34.9439 59.8576ZM39.737 63.3823C37.7019 62.509 36.1062 61.3297 34.9378 59.8496L34.4669 60.2214C35.7065 61.7918 37.3884 63.0274 39.5004 63.9336L39.737 63.3823ZM46.3726 64.9802C43.9896 64.7286 41.7758 64.1944 39.7298 63.3792L39.5077 63.9366C41.6088 64.7738 43.8766 65.32 46.3096 65.5768L46.3726 64.9802ZM46.6411 70.4262V65.2785H46.0411V70.4262H46.6411ZM48.7492 72.7C47.998 72.7 47.4884 72.5002 47.1622 72.1516C46.8325 71.7992 46.6411 71.2427 46.6411 70.4262H46.0411C46.0411 71.3256 46.2511 72.056 46.7241 72.5615C47.2006 73.0708 47.8949 73.3 48.7492 73.3V72.7ZM50.8572 70.4262C50.8572 71.2427 50.6658 71.7992 50.3361 72.1516C50.0099 72.5002 49.5003 72.7 48.7492 72.7V73.3C49.6034 73.3 50.2978 73.0708 50.7743 72.5615C51.2472 72.056 51.4572 71.3256 51.4572 70.4262H50.8572ZM50.8572 65.3738V70.4262H51.4572V65.3738H50.8572ZM60.1948 61.7125C57.9119 63.6336 54.8987 64.761 51.1323 65.0749L51.1821 65.6728C55.0411 65.3512 58.1817 64.1907 60.5811 62.1716L60.1948 61.7125ZM63.7 54.2206C63.7 57.245 62.5359 59.7354 60.1944 61.7129L60.5815 62.1713C63.0561 60.0814 64.3 57.4242 64.3 54.2206H63.7ZM61.5767 48.2326C62.9826 49.6897 63.7 51.6738 63.7 54.2206H64.3C64.3 51.5561 63.5459 49.4094 62.0085 47.816L61.5767 48.2326ZM56.569 44.873C58.5338 45.6196 60.1999 46.7378 61.572 48.2275L62.0133 47.8211C60.576 46.2604 58.8308 45.0906 56.7822 44.3121L56.569 44.873ZM51.0929 43.1697C52.8142 43.5471 54.6384 44.114 56.5658 44.8717L56.7853 44.3133C54.8332 43.5459 52.9784 42.9688 51.2214 42.5836L51.0929 43.1697ZM50.8572 32.6766V42.8766H51.4572V32.6766H50.8572ZM57.1637 34.8253C55.4458 33.4543 53.4525 32.639 51.1915 32.3786L51.1229 32.9747C53.2766 33.2227 55.1629 33.9962 56.7895 35.2943L57.1637 34.8253ZM59.1839 35.4271C58.5115 35.4271 57.8288 35.2245 57.1318 34.8031L56.8214 35.3165C57.596 35.7849 58.3848 36.0271 59.1839 36.0271V35.4271ZM61.0974 34.7353C60.5506 35.1971 59.9172 35.4271 59.1839 35.4271V36.0271C60.056 36.0271 60.8273 35.7487 61.4845 35.1937L61.0974 34.7353ZM61.894 32.9626C61.894 33.6352 61.6326 34.2261 61.0843 34.747L61.4976 35.182C62.1533 34.559 62.494 33.8152 62.494 32.9626H61.894ZM60.8037 30.91C61.5468 31.4983 61.894 32.1791 61.894 32.9626H62.494C62.494 31.9667 62.0385 31.1223 61.1762 30.4396L60.8037 30.91ZM51.1385 27.4471C55.1713 27.6983 58.382 28.858 60.796 30.9036L61.1839 30.4459C58.6481 28.2971 55.3036 27.1054 51.1758 26.8482L51.1385 27.4471ZM50.8572 24.5738V27.1477H51.4572V24.5738H50.8572ZM50.8572 48.5963V59.8449H51.4572V48.5963H50.8572ZM55.842 50.2554C54.6013 49.4041 53.0608 48.7562 51.2289 48.305L51.0854 48.8876C52.8656 49.326 54.3351 49.9492 55.5025 50.7502L55.842 50.2554ZM57.8786 54.1252C57.8786 52.4408 57.1966 51.1359 55.8357 50.2513L55.5087 50.7543C56.6897 51.522 57.2786 52.6321 57.2786 54.1252H57.8786ZM55.9661 58.1675C57.2351 57.0959 57.8786 55.7421 57.8786 54.1252H57.2786C57.2786 55.5588 56.7181 56.7471 55.579 57.7091L55.9661 58.1675ZM51.1962 60.1423C53.179 59.8825 54.7792 59.229 55.9725 58.1619L55.5726 57.7147C54.4917 58.6813 53.015 59.2988 51.1182 59.5474L51.1962 60.1423ZM46.2906 32.5716C44.5858 32.8631 43.2671 33.4199 42.372 34.2704C41.4682 35.129 41.0244 36.2603 41.0244 37.6336H41.6244C41.6244 36.4014 42.0167 35.4355 42.7852 34.7053C43.5624 33.967 44.752 33.4434 46.3917 33.163L46.2906 32.5716ZM46.6411 41.828V32.8673H46.0411V41.828H46.6411ZM42.4639 40.5534C43.3704 41.1497 44.6414 41.6683 46.261 42.1171L46.4213 41.5389C44.8302 41.098 43.6263 40.5998 42.7936 40.0522L42.4639 40.5534ZM41.0244 37.6336C41.0244 38.8663 41.4994 39.849 42.4517 40.545L42.8058 40.0606C42.019 39.4856 41.6244 38.6888 41.6244 37.6336H41.0244Z" mask="url(#a)"></path>
  <defs>
    <linearGradient id="paint0_linear_645_8505" x1="47.959" x2="47.959" y1="7.5" y2="87.5" gradientUnits="userSpaceOnUse">
      <stop stop-color="#222831" class="stopColor10c944 svgShape"></stop>
      <stop offset=".717" stop-color="#c96112" class="stopColor9ee42c svgShape"></stop>
    </linearGradient>
    <linearGradient id="paint1_linear_645_8505" x1="47.959" x2="47.959" y1="7.5" y2="87.5" gradientUnits="userSpaceOnUse">
      <stop stop-color="#222831" class="stopColor10c944 svgShape"></stop>
      <stop offset=".717" stop-color="#c96112" class="stopColor9ee42c svgShape"></stop>
    </linearGradient>
  </defs>
</svg>
