<svg xmlns="http://www.w3.org/2000/svg" viewBox="0 0 32 32" id="PieChart">
  <defs>
    <linearGradient id="a" x1="9.073" x2="24.669" y1="30.009" y2="2.996" gradientUnits="userSpaceOnUse">
      <stop offset="0" stop-color="#222831" class="stopColor3cacb6 svgShape"></stop>
      <stop offset="1" stop-color="#c96112" class="stopColor8ccead svgShape"></stop>
    </linearGradient>
  </defs>
  <path fill="url(#a)" d="M18,1c-.552,0-1,.448-1,1V13c0,.552,.448,1,1,1h11c.552,0,1-.448,1-1,0-6.617-5.383-12-12-12Zm1,11V3.05c4.717,.47,8.48,4.233,8.95,8.95h-8.95Zm-4,6.586V8c0-.552-.448-1-1-1-6.617,0-12,5.383-12,12s5.383,12,12,12c3.205,0,6.218-1.248,8.485-3.515,.188-.188,.293-.441,.293-.707s-.105-.52-.293-.707l-7.485-7.485Zm-1,10.414c-5.514,0-10-4.486-10-10,0-5.176,3.954-9.447,9-9.95v9.95c0,.266,.105,.52,.293,.707l7.036,7.036c-1.782,1.462-3.995,2.257-6.329,2.257Zm11.55-3h-.029c-.265-.008-.517-.121-.698-.313l-7.55-8c-.274-.29-.349-.716-.191-1.083,.158-.367,.519-.604,.918-.604h11c.552,0,1,.448,1,1,0,3.336-1.336,6.436-3.764,8.728-.186,.175-.432,.272-.687,.272Zm-5.231-8l5.238,5.551c1.364-1.565,2.192-3.485,2.394-5.551h-7.632Z"></path>
</svg>
