<svg xmlns="http://www.w3.org/2000/svg" xmlns:xlink="http://www.w3.org/1999/xlink" viewBox="0 0 512 512" id="ProductSetting">
  <defs>
    <linearGradient id="a" x1="256" x2="256" y1="10.823" y2="500.203" gradientUnits="userSpaceOnUse">
      <stop offset="0" stop-color="#f96d00" class="stopColor00efd1 svgShape"></stop>
      <stop offset="1" stop-color="#005eea" class="stopColor00acea svgShape"></stop>
    </linearGradient>
    <linearGradient xlink:href="#a" id="b" x1="256.048" x2="256.048" y1="10.823" y2="500.203"></linearGradient>
  </defs>
  <g fill="#222831" class="color000000 svgShape">
    <path fill="url(#a)" d="M485.556,214.553l-44.142-4.259A186.028,186.028,0,0,0,418.985,157.3l27.991-33.791a8,8,0,0,0-.486-10.735L399.721,65.533a8,8,0,0,0-10.8-.53L355.07,93.072a192.015,192.015,0,0,0-53.029-22.348l-4.256-43.709A7.819,7.819,0,0,0,289.822,20H222.756a7.817,7.817,0,0,0-7.963,7.015l-4.256,43.817a185.753,185.753,0,0,0-53.079,22.251l-33.8-28.053a8,8,0,0,0-10.758.481l-47.34,47.238a8,8,0,0,0-.507,10.766L93.1,157.342a192.85,192.85,0,0,0-22.382,52.95l-44.275,4.261A8.19,8.19,0,0,0,19,222.516v66.968a8.189,8.189,0,0,0,7.444,7.963l44.142,4.259A186.028,186.028,0,0,0,93.015,354.7L65.024,388.488a8,8,0,0,0,.52,10.77L112.891,446.5a8.007,8.007,0,0,0,10.761.5l33.856-28.069a192,192,0,0,0,53.028,22.348l4.257,43.709A7.817,7.817,0,0,0,222.756,492h67.066a7.817,7.817,0,0,0,7.962-7.015l4.257-43.817a185.777,185.777,0,0,0,53.079-22.251l33.8,28.053a8,8,0,0,0,10.757-.481l47.341-47.238a8,8,0,0,0,.507-10.766l-28.05-33.827A192.872,192.872,0,0,0,441.861,301.7l43.7-4.255A8.189,8.189,0,0,0,493,289.484V222.516A8.189,8.189,0,0,0,485.556,214.553ZM477,282.229l-42.162,4.105a8.126,8.126,0,0,0-7.138,6.227,177.231,177.231,0,0,1-24.734,58.373,8,8,0,0,0,.518,9.472l27.083,32.679-37.03,36.949-32.695-27.105a8,8,0,0,0-9.521-.515,170.2,170.2,0,0,1-58.369,24.542,7.762,7.762,0,0,0-6.282,6.836L282.559,476H230.018l-4.111-42.208a7.878,7.878,0,0,0-6.3-6.946A176.019,176.019,0,0,1,161.169,402.3a8,8,0,0,0-9.43.6l-32.692,27.119L82.024,393.078l27.1-32.675a8,8,0,0,0,.5-9.535,170.208,170.208,0,0,1-24.632-58.275,8.248,8.248,0,0,0-7.261-6.26L35,282.221V229.779l42.73-4.112a8.125,8.125,0,0,0,7.147-6.228,177.233,177.233,0,0,1,24.735-58.373,8,8,0,0,0-.519-9.472L82.01,118.915l37.031-36.949,32.694,27.105a8,8,0,0,0,9.522.515,170.191,170.191,0,0,1,58.368-24.542,7.762,7.762,0,0,0,6.282-6.836L230.018,36h52.541l4.111,42.208a7.879,7.879,0,0,0,6.3,6.946A176.005,176.005,0,0,1,351.408,109.7a8,8,0,0,0,9.431-.6L393.5,82.008l36.51,36.879L402.88,151.6a8,8,0,0,0-.5,9.535,170.208,170.208,0,0,1,24.632,58.275,8.248,8.248,0,0,0,7.261,6.26L477,229.779Z"></path>
    <path fill="url(#b)" d="M256.048,115.816c-77.4,0-140.38,62.886-140.38,140.184s62.975,140.184,140.38,140.184S396.428,333.3,396.428,256,333.454,115.816,256.048,115.816Zm0,264.368c-68.583,0-124.38-55.709-124.38-124.184s55.8-124.184,124.38-124.184S380.428,187.525,380.428,256,324.631,380.184,256.048,380.184Z"></path>
    <path fill="url(#a)" d="M332.234,198.186l-73.668-23.723a8.189,8.189,0,0,0-4.966,0l-73.807,23.723A8.23,8.23,0,0,0,174,205.8V306.2a8.2,8.2,0,0,0,5.766,7.614l73.668,23.723a8.364,8.364,0,0,0,2.511.386,8.189,8.189,0,0,0,2.483-.386l73.793-23.723A8.218,8.218,0,0,0,338,306.2V205.8A8.2,8.2,0,0,0,332.234,198.186ZM256,190.482,303.493,205.8,256,221.116,208.507,205.8Zm-66,26.3,58,18.562v83.59l-58-18.564Zm74,102.152v-83.59l58-18.562v83.588Z"></path>
  </g>
</svg>
