<svg xmlns="http://www.w3.org/2000/svg" fill="none" viewBox="0 0 96 96" id="QrCode">
  <path fill="url(#paint0_linear_1208_4974)" fill-rule="evenodd" d="M5 45.5C3.61928 45.5 2.5 46.6193 2.5 48C2.5 49.3807 3.61928 50.5 5 50.5L91 50.5C92.3807 50.5 93.5 49.3807 93.5 48C93.5 46.6193 92.3807 45.5 91 45.5L5 45.5ZM17 83.5C14.5147 83.5 12.5 81.4853 12.5 79L12.5 67C12.5 65.6193 11.3807 64.5 10 64.5C8.61928 64.5 7.5 65.6193 7.5 67L7.5 79C7.5 84.2467 11.7533 88.5 17 88.5L29 88.5C30.3807 88.5 31.5 87.3807 31.5 86C31.5 84.6193 30.3807 83.5 29 83.5L17 83.5ZM7.49999 29C7.49999 30.3807 8.61928 31.5 9.99999 31.5C11.3807 31.5 12.5 30.3807 12.5 29L12.5 17C12.5 14.5147 14.5147 12.5 17 12.5L29 12.5C30.3807 12.5 31.5 11.3807 31.5 10C31.5 8.61929 30.3807 7.5 29 7.5L17 7.5C11.7533 7.5 7.49999 11.7533 7.49999 17L7.49999 29ZM67 83.5C65.6193 83.5 64.5 84.6193 64.5 86C64.5 87.3807 65.6193 88.5 67 88.5L79 88.5C84.2467 88.5 88.5 84.2467 88.5 79L88.5 67C88.5 65.6193 87.3807 64.5 86 64.5C84.6193 64.5 83.5 65.6193 83.5 67L83.5 79C83.5 81.4853 81.4853 83.5 79 83.5L67 83.5ZM67 7.5C65.6193 7.5 64.5 8.61929 64.5 10C64.5 11.3807 65.6193 12.5 67 12.5L79 12.5C81.4853 12.5 83.5 14.5147 83.5 17L83.5 29C83.5 30.3807 84.6193 31.5 86 31.5C87.3807 31.5 88.5 30.3807 88.5 29L88.5 17C88.5 11.7533 84.2467 7.5 79 7.5L67 7.5Z" clip-rule="evenodd"></path>
  <defs>
    <linearGradient id="paint0_linear_1208_4974" x1="93.5" x2="2.5" y1="48" y2="48" gradientUnits="userSpaceOnUse">
      <stop stop-color="#222831" class="stopColorff1f00 svgShape"></stop>
      <stop offset="1" stop-color="#c96112" class="stopColorff8a00 svgShape"></stop>
    </linearGradient>
  </defs>
</svg>
