<svg xmlns="http://www.w3.org/2000/svg" enable-background="new 0 0 24 24" viewBox="0 0 24 24" id="schedule">
  <g id="_icons" fill="#222831" class="color000000 svgShape">
    <linearGradient id="SVGID_1_" x1="2.167" x2="21.738" y1="13.753" y2="13.753" gradientUnits="userSpaceOnUse">
      <stop offset="0" stop-color="#f96d00" class="stopColor59c173 svgShape"></stop>
      <stop offset="1" stop-color="#2664c1" class="stopColor5d26c1 svgShape"></stop>
    </linearGradient>
    <path fill="url(#SVGID_1_)" d="M13.1694,11.4424l-1.6675,2.4854l-0.5371-0.5488c-0.3882-0.3955-1.0205-0.4023-1.4146-0.0156
		c-0.3945,0.3867-0.4014,1.0195-0.0151,1.4141l1.3975,1.4277c0.189,0.1934,0.4473,0.3008,0.7148,0.3008
		c0.0303,0,0.061-0.001,0.0918-0.0039c0.2998-0.0283,0.5708-0.1895,0.7388-0.4385l2.3525-3.5059
		c0.3076-0.459,0.1851-1.0801-0.2734-1.3877C14.0986,10.8604,13.4775,10.9844,13.1694,11.4424z"></path>
    <linearGradient id="SVGID_00000129178957511324434390000005892955600532218298_" x1="2.167" x2="21.738" y1="11.498" y2="11.498" gradientUnits="userSpaceOnUse">
      <stop offset="0" stop-color="#f96d00" class="stopColor59c173 svgShape"></stop>
      <stop offset="1" stop-color="#2664c1" class="stopColor5d26c1 svgShape"></stop>
    </linearGradient>
    <path fill="url(#SVGID_00000129178957511324434390000005892955600532218298_)" d="M18,2.7901V2c0-0.5527-0.4478-1-1-1
		s-1,0.4473-1,1v0.3489c-2.311-0.3948-4.6753-0.4492-7-0.1537V2c0-0.5527-0.4478-1-1-1S7,1.4473,7,2v0.5455
		c-0.2478,0.0535-0.4971,0.1-0.7432,0.1616C4.5044,3.1445,3.1445,4.5059,2.707,6.2578c-0.939,3.7568-0.939,7.7275,0,11.4844
		c0.4375,1.752,1.7974,3.1133,3.5503,3.5508c1.8784,0.4697,3.8105,0.7041,5.7427,0.7041s3.8647-0.2344,5.7432-0.7041
		c1.7524-0.4375,3.1123-1.7988,3.5498-3.5508c0.939-3.7568,0.939-7.7275,0-11.4844C20.8775,4.5941,19.6254,3.2927,18,2.7901z
		 M6.7417,4.6465c0.1474-0.0368,0.297-0.0629,0.4451-0.0966C7.3666,4.815,7.6555,5,8,5c0.4728,0,0.8505-0.3347,0.9548-0.7759
		C9.964,4.0817,10.9814,4.002,12,4.002c1.3676,0,2.7346,0.1318,4.0793,0.3885C16.2314,4.7488,16.5863,5,17,5
		c0.228,0,0.428-0.0897,0.5962-0.218c0.8624,0.3368,1.5281,1.0463,1.7563,1.9602c0.0809,0.3235,0.1467,0.6503,0.2123,0.9771
		c-5.0277-0.3745-10.1021-0.3745-15.1298,0c0.0657-0.3267,0.1315-0.6535,0.2123-0.9771C4.9058,5.708,5.708,4.9053,6.7417,4.6465z
		 M19.3525,17.2578c-0.2583,1.0342-1.0605,1.8369-2.0942,2.0957c-3.4404,0.8594-7.0767,0.8594-10.5161,0
		c-1.0342-0.2588-1.8364-1.0615-2.0947-2.0957c-0.6132-2.4526-0.7806-5.0048-0.5193-7.515c5.229-0.4141,10.5148-0.4141,15.7438,0
		C20.1332,12.253,19.9657,14.8052,19.3525,17.2578z"></path>
  </g>
</svg>
