<svg xmlns="http://www.w3.org/2000/svg" xmlns:xlink="http://www.w3.org/1999/xlink" viewBox="0 0 512 512" id="SearchUser">
  <defs>
    <linearGradient id="a" x1="274.65" x2="274.65" y1="471.286" y2="21.202" gradientTransform="matrix(1 0 0 -1 0 514)" gradientUnits="userSpaceOnUse">
      <stop offset="0" stop-color="#f96d00" class="stopColor00efd1 svgShape"></stop>
      <stop offset="1" stop-color="#222831" class="stopColor00acea svgShape"></stop>
    </linearGradient>
    <linearGradient xlink:href="#a" id="b" x1="418" x2="418" y1="471.286" y2="21.202"></linearGradient>
    <linearGradient xlink:href="#a" id="c" x1="256" x2="256" y1="471.286" y2="21.202"></linearGradient>
    <linearGradient xlink:href="#a" id="d" x1="94" x2="94" y1="471.286" y2="21.202"></linearGradient>
    <linearGradient xlink:href="#a" id="e" x1="369.963" x2="369.963" y1="471.286" y2="21.202"></linearGradient>
  </defs>
  <path fill="url(#a)" d="M256,217a61.557,61.557,0,0,0,57.6-39.9,32.97,32.97,0,1,0-9.4-59.8A61.533,61.533,0,1,0,256,217Zm65.9-88.9a17,17,0,0,1,0,34,17.59,17.59,0,0,1-4.6-.6,61.156,61.156,0,0,0-4.8-30.5A16.563,16.563,0,0,1,321.9,128.1ZM256,109.8a45.644,45.644,0,0,1,45.6,45.6,44.209,44.209,0,0,1-1.2,10.4c-28-11.8-41-41.4-45.9-55.9C255,109.9,255.5,109.8,256,109.8Zm-17.9,3.7c.1,6.1-1.1,30.4-27.5,38.5A45.488,45.488,0,0,1,238.1,113.5Zm11,24.3c8.7,15.9,22.9,33.5,44.9,42.8a45.494,45.494,0,0,1-81.7-12.3C234,162.7,244.3,149,249.1,137.8Z"></path>
  <path fill="url(#b)" d="M418,169.9A50.9,50.9,0,1,0,367.1,119,50.979,50.979,0,0,0,418,169.9Zm0-85.7a34.9,34.9,0,1,1-34.9,34.9A34.932,34.932,0,0,1,418,84.2Z"></path>
  <path fill="url(#c)" d="M459.4,171.2h-4l-2.4,3.3a43.455,43.455,0,0,1-70,0l-2.4-3.3h-4A46.647,46.647,0,0,0,330,217.8v9.4a56.438,56.438,0,0,0-22.2-4.5h-4l-2.4,3.3a56.308,56.308,0,0,1-90.8,0l-2.4-3.3h-4a54.786,54.786,0,0,0-22.2,4.6v-9.4a46.647,46.647,0,0,0-46.6-46.6h-4l-2.4,3.3a43.455,43.455,0,0,1-70,0l-2.4-3.3h-4A46.5,46.5,0,0,0,6,217.8v83.7H148v80H283.8A88.2,88.2,0,0,0,357,443.2a80.23,80.23,0,0,0,11,.7,88.13,88.13,0,0,0,88-88,87.184,87.184,0,0,0-18.8-54.3H506V217.9A46.668,46.668,0,0,0,459.4,171.2ZM148,278.8v6.6H22V217.7a30.589,30.589,0,0,1,26.9-30.3,59.294,59.294,0,0,0,90.2,0A30.589,30.589,0,0,1,166,217.7v19.9A56.1,56.1,0,0,0,148,278.8Zm132.5,86.7H164V278.9a40.2,40.2,0,0,1,36.4-40,72.449,72.449,0,0,0,111.2,0,39.98,39.98,0,0,1,35.5,31.5A88.128,88.128,0,0,0,280,355.9C280,359.1,280.2,362.3,280.5,365.5ZM440,355.8a72.083,72.083,0,0,1-72,72,68.025,68.025,0,0,1-9-.6,72.086,72.086,0,0,1-63-71.4c0-35.3,26.3-65.9,61.1-71.2a78.786,78.786,0,0,1,10.9-.8A72.083,72.083,0,0,1,440,355.8Zm50-70.3H420.8A87.364,87.364,0,0,0,368,267.8c-1.7,0-3.4.1-5,.2a55.32,55.32,0,0,0-17-30.4V217.8a30.589,30.589,0,0,1,26.9-30.3,59.294,59.294,0,0,0,90.2,0A30.589,30.589,0,0,1,490,217.8Z"></path>
  <path fill="url(#d)" d="M94,169.9A50.9,50.9,0,1,0,43.1,119,50.979,50.979,0,0,0,94,169.9Zm0-85.7A34.9,34.9,0,1,1,59.1,119,34.932,34.932,0,0,1,94,84.2Z"></path>
  <path fill="url(#e)" d="M400.3,376.8A42.736,42.736,0,1,0,389,388.1l15.3,15.3a7.786,7.786,0,0,0,5.6,2.3,8.05,8.05,0,0,0,5.7-13.7Zm-35.4,2.7a26.8,26.8,0,1,1,26.9-26.8A26.887,26.887,0,0,1,364.9,379.5Z"></path>
</svg>
