<svg xmlns="http://www.w3.org/2000/svg" viewBox="0 0 64 64" id="socialpromotion">
  <defs>
    <linearGradient id="a" x1="20.173" x2="65.947" y1="56.414" y2="10.639" gradientUnits="userSpaceOnUse">
      <stop offset="0" stop-color="#222831" class="stopColor41dfd0 svgShape"></stop>
      <stop offset="1" stop-color="#c96112" class="stopColoree83ef svgShape"></stop>
    </linearGradient>
  </defs>
  <path fill="url(#a)" d="M7,38H8a1,1,0,0,0,1,1h2v7a3,3,0,0,0,6,0V39h2a1,1,0,0,0,.927-.637l2.039.68a16.584,16.584,0,0,1,4.725,2.476L28,42.5V43a3,3,0,0,0,6,0V21a3,3,0,0,0-6,0v.564A16.523,16.523,0,0,1,19.959,25.8.985.985,0,0,0,19,25H9a1,1,0,0,0-1,1H7a5.006,5.006,0,0,0-5,5v2A5.006,5.006,0,0,0,7,38Zm8,8a1,1,0,0,1-2,0V39h2ZM30,21a1,1,0,0,1,2,0V43a1,1,0,0,1-2,0ZM28,40l-.108-.081A18.585,18.585,0,0,0,22.6,37.146L20,36.279V27.83A18.5,18.5,0,0,0,28,24.2ZM10,27h8V37H10ZM4,31a3,3,0,0,1,3-3H8v8H7a3,3,0,0,1-3-3ZM54,2a8,8,0,1,0,8,8A8.009,8.009,0,0,0,54,2Zm0,14a6,6,0,1,1,6-6A6.006,6.006,0,0,1,54,16Zm-1,7a9,9,0,1,0,9,9A9.011,9.011,0,0,0,53,23Zm0,16a7,7,0,1,1,7-7A7.008,7.008,0,0,1,53,39ZM58,8.5V9H56V8.5a.5.5,0,0,0-1,0V10h2v2H55v2H53V12H51V10h2V8.5a2.5,2.5,0,0,1,5,0ZM59,48H50a3,3,0,0,0-3,3v8a3,3,0,0,0,3,3h9a3,3,0,0,0,3-3V51A3,3,0,0,0,59,48Zm0,2a1,1,0,0,1,1,1v3H58.358a3.981,3.981,0,0,0-7.716,0H49V51a1,1,0,0,1,1-1Zm-2.5,5a2,2,0,1,1-2-2A2,2,0,0,1,56.5,55ZM59,60H50a1,1,0,0,1-1-1V56h1.642a3.981,3.981,0,0,0,7.716,0H60v3A1,1,0,0,1,59,60ZM54.5,28A2.5,2.5,0,0,0,52,30.5v.882l-2.553-1.277a1,1,0,0,0-1.417,1.138l.457,1.828a5.057,5.057,0,0,0,3.321,3.586,3.79,3.79,0,0,0,2.385,0l.225-.075A3.769,3.769,0,0,0,57,33V32h1V30H56.949A2.5,2.5,0,0,0,54.5,28Zm.5,5a1.773,1.773,0,0,1-1.214,1.684l-.226.075a1.787,1.787,0,0,1-1.12,0,3.06,3.06,0,0,1-1.925-1.884l.59.3A2,2,0,0,0,54,31.382V30.5a.5.5,0,0,1,1,0ZM38,33H36V31h2Zm4,0H40V31h2Zm-3.756-8.243c-.655.248-1.332.467-2.014.65l-.518-1.932c.617-.165,1.23-.364,1.823-.588Zm8.56-6.038-1.523-1.3c.384-.451.751-.928,1.093-1.415l.078-.111,1.636,1.149-.077.11C47.635,17.694,47.229,18.22,46.8,18.719Zm-2.836.1,1.386,1.442a20.89,20.89,0,0,1-1.6,1.387l-1.234-1.574A19.006,19.006,0,0,0,43.968,18.818Zm-1.942,4.05c-.6.376-1.216.726-1.844,1.039l-.893-1.789a19.146,19.146,0,0,0,1.668-.941Zm.5,21.059,1.234-1.574a20.89,20.89,0,0,1,1.6,1.387l-1.386,1.442A19.006,19.006,0,0,0,42.522,43.927Zm3.853,4.066c-.343-.488-.71-.965-1.094-1.416l1.523-1.3c.425.5.831,1.025,1.208,1.564l.076.109L46.452,48.1ZM35.712,40.525l.518-1.932c.682.183,1.359.4,2.014.65l-.709,1.87C36.942,40.889,36.329,40.69,35.712,40.525Zm3.577,1.357.893-1.789c.628.313,1.248.663,1.844,1.039l-1.069,1.691A19.146,19.146,0,0,0,39.289,41.882ZM12.75,29h2v2h-2Zm0,4h2v2h-2Z"></path>
</svg>
