<svg xmlns="http://www.w3.org/2000/svg" fill-rule="evenodd" stroke-linejoin="round" stroke-miterlimit="2" clip-rule="evenodd" viewBox="0 0 64 64" id="store">
  <path fill="url(#a)" d="M50.686 4H13.314a2.998 2.998 0 0 0-2.753 1.81L5.082 18.482A1.006 1.006 0 0 0 5 18.88V19a7.5 7.5 0 0 0 4 6.635V53H7c-.796 0-1.559.316-2.121.879A2.996 2.996 0 0 0 4 56v3a1 1 0 0 0 1 1h54a1 1 0 0 0 1-1v-3c0-.796-.316-1.559-.879-2.121A2.996 2.996 0 0 0 57 53h-2V25.635A7.5 7.5 0 0 0 59 19v-.12l-.001.001a.994.994 0 0 0-.082-.399L53.439 5.81A2.998 2.998 0 0 0 50.686 4ZM7 55h50a.997.997 0 0 1 1 1v2H6v-2a.997.997 0 0 1 1-1Zm38-32.256a7.498 7.498 0 0 1-6.5 3.756 7.495 7.495 0 0 1-6.5-3.756 7.498 7.498 0 0 1-6.5 3.756 7.495 7.495 0 0 1-6.5-3.756 7.497 7.497 0 0 1-6.5 3.756 7.563 7.563 0 0 1-1.5-.15V53h2V32a3 3 0 0 1 3-3h11c.796 0 1.559.316 2.121.879.563.562.879 1.325.879 2.121v21h23V26.35a7.495 7.495 0 0 1-8-3.606ZM28 53V32a.997.997 0 0 0-1-1H16a1 1 0 0 0-1 1v21h13Zm23-21c0-.796-.316-1.559-.879-2.121A2.996 2.996 0 0 0 48 29H36c-.796 0-1.559.316-2.121.879A2.996 2.996 0 0 0 33 32v6c0 .796.316 1.559.879 2.121A2.996 2.996 0 0 0 36 41h12c.796 0 1.559-.316 2.121-.879A2.996 2.996 0 0 0 51 38v-6Zm-2 0v6a.997.997 0 0 1-1 1H36a.997.997 0 0 1-1-1v-6a.997.997 0 0 1 1-1h12a.997.997 0 0 1 1 1Zm7.929-12.121a5.5 5.5 0 0 1-10.859 0h10.859Zm-38.999 0a5.502 5.502 0 0 1-10.86 0h10.86Zm12.999 0a5.5 5.5 0 0 1-10.859 0h10.859Zm13 0a5.5 5.5 0 0 1-10.859 0h10.859ZM19.973 6l-1.697 11.879H7.522l4.874-11.276A1 1 0 0 1 13.314 6h6.659Zm.323 11.879H31V6h-9.007a.918.918 0 0 1-.003.02l-1.694 11.859ZM42.007 6H33v11.879h10.704L42.01 6.02 42.007 6Zm2.02 0h6.659a1 1 0 0 1 .918.603l4.874 11.276H45.724L44.027 6Z"></path>
  <defs>
    <linearGradient id="a" x1="0" x2="1" y1="0" y2="0" gradientTransform="matrix(0 -55 55 0 32 60)" gradientUnits="userSpaceOnUse">
      <stop offset="0" stop-color="#222831" class="stopColorfd3c84 svgShape"></stop>
      <stop offset=".58" stop-color="#c96112" class="stopColorfe8645 svgShape"></stop>
      <stop offset="1" stop-color="#ff8528" class="stopColorffa828 svgShape"></stop>
    </linearGradient>
  </defs>
</svg>
