<svg xmlns="http://www.w3.org/2000/svg" xml:space="preserve" viewBox="0 0 47.5 47.5" enable-background="new 0 0 47.5 47.5" id="Bright">
  <defs>
    <clipPath id="a">
      <path d="M0 38h38V0H0v38Z" fill="#222831" class="color000000 svgShape"></path>
    </clipPath>
  </defs>
  <g clip-path="url(#a)" transform="matrix(1.25 0 0 -1.25 0 47.5)" fill="#222831" class="color000000 svgShape">
    <path d="M0 0a2 2 0 0 0-4 0v4a2 2 0 0 0 4 0V0Z" transform="translate(21 31)" fill="#f96d00" fill-opacity="1" fill-rule="nonzero" stroke="none" class="colorffac33 svgShape"></path>
    <path d="M0 0a2 2 0 0 0-4 0v4a2 2 0 0 0 4 0V0Z" transform="translate(21 3)" fill="#f96d00" fill-opacity="1" fill-rule="nonzero" stroke="none" class="colorffac33 svgShape"></path>
    <path d="M0 0a2 2 0 0 0 0-4h-4a2 2 0 0 0 0 4h4z" transform="translate(7 21)" fill="#f96d00" fill-opacity="1" fill-rule="nonzero" stroke="none" class="colorffac33 svgShape"></path>
    <path d="M0 0a2 2 0 0 0 0-4h-4a2 2 0 0 0 0 4h4z" transform="translate(35 21)" fill="#f96d00" fill-opacity="1" fill-rule="nonzero" stroke="none" class="colorffac33 svgShape"></path>
    <path d="M0 0a2 2 0 0 0 2.828-2.828L0-5.657a2 2 0 1 0-2.828 2.828L0 0Z" transform="translate(9.1 11.929)" fill="#f96d00" fill-opacity="1" fill-rule="nonzero" stroke="none" class="colorffac33 svgShape"></path>
    <path d="M0 0a1.999 1.999 0 1 0 2.828-2.828L0-5.656a2 2 0 0 0-2.828 2.828L0 0Z" transform="translate(28.9 31.727)" fill="#f96d00" fill-opacity="1" fill-rule="nonzero" stroke="none" class="colorffac33 svgShape"></path>
    <path d="M0 0a2 2 0 0 0 2.828 2.828L5.657 0a2 2 0 1 0-2.828-2.828L0 0Z" transform="translate(26.071 9.1)" fill="#f96d00" fill-opacity="1" fill-rule="nonzero" stroke="none" class="colorffac33 svgShape"></path>
    <path d="M0 0a5 5 0 1 0 0 10A5 5 0 0 0 0 0m0 14A9 9 0 1 1 0-4a9 9 0 0 1 0 18" transform="translate(19 14)" fill="#f96d00" fill-opacity="1" fill-rule="nonzero" stroke="none" class="colorffac33 svgShape"></path>
    <path d="M0 0a1.999 1.999 0 1 0 2.828 2.828L5.656 0a2 2 0 0 0-2.828-2.828L0 0Z" transform="translate(6.272 28.9)" fill="#f96d00" fill-opacity="1" fill-rule="nonzero" stroke="none" class="colorffac33 svgShape"></path>
  </g>
</svg>
