<svg xmlns="http://www.w3.org/2000/svg" enable-background="new 0 0 24 24" viewBox="0 0 24 24" id="Night">
  <g id="Layer_2" fill="#222831" class="color000000 svgShape">
    <path fill="#f96d00" d="M21.6,14.79C20.38,19.03,16.43,22,12,22C6.49,22,2,17.51,2,12c0-4.43,2.97-8.38,7.21-9.6
		c0.41-0.12,0.85,0.04,1.1,0.38c0.24,0.35,0.24,0.82-0.01,1.16C9.45,5.13,9,6.53,9,8c0,3.86,3.14,7,7,7c1.47,0,2.87-0.45,4.06-1.3
		c0.34-0.25,0.81-0.25,1.16-0.01C21.56,13.94,21.72,14.38,21.6,14.79z" class="color9c9efe svgShape"></path>
    <path d="M20.52,17.21C18.75,20.12,15.52,22,12,22C6.49,22,2,17.51,2,12c0-2.79,1.18-5.39,3.12-7.24
		C4.16,6.3,3.62,8.1,3.62,10c0,5.51,4.49,10,10,10C16.24,20,18.7,18.96,20.52,17.21z" opacity=".1" fill="#222831" class="color000000 svgShape"></path>
  </g>
</svg>
