<svg xmlns="http://www.w3.org/2000/svg" viewBox="0 0 1024 1024" id="no-data">
  <path d="M211.205 335.774C222.132 334.536 224.777 347.286 215.306 350.872 204.647 351.48 201.699 339.146 211.205 335.774zM213.027 419.456C224.102 420.256 225.066 433.514 214.376 435.524L212.533 435.351C209.14 434.897 205.174 430.848 205.837 427.216L205.907 426.875C206.685 422.73 208.789 420.463 213.027 419.456zM166.301 404.756C172.652 404.073 177.722 407.713 178.791 414.157L178.851 414.531C180.207 422.417 178.737 430.467 170.085 432.447L169.285 432.485C154.247 433.068 152.846 409.117 166.301 404.756zM166.141 321.267C183.603 320.846 182.967 346.667 170.051 348.874 154.075 349.803 151.249 326.283 166.141 321.267zM441.264 314.518L457.031 315.273C513.495 321.631 554.434 368.891 554.492 425.082 554.551 483.038 509.3 532.659 450.352 535.007 402.866 535.546 362.715 512.013 344.091 466.703 315.291 396.637 364.65 317.315 441.264 314.518zM512.869 359.515L379.919 492.481C385.395 499.664 404.58 510.717 412.739 513.474 436.533 521.583 463.173 521.211 485.938 509.978 542.542 482.044 556.916 405.679 512.869 359.515zM437.636 330.181C412.832 332.287 389.435 343.568 373.309 362.734 346.706 394.35 343.15 447.812 369.757 480.708L392.077 458.367 501.207 348.787C492.369 338.98 463.661 330.712 451.061 330.049L437.636 330.181z" transform="scale(1.6)" fill="#daa200" class="color000000 svgShape"></path>
  <path d="M260.496 103.807L305.128 104.17C345.716 106.645 432.689 119.964 442.674 162.6C443.774 167.295 443.229 173.115 443.233 177.939L443.163 287.344C442.91 298.466 427.531 301.565 427.668 282.61L427.397 275.426C424.842 276.949 422.613 278.808 420.156 280.463C391.766 299.589 352.26 306.697 318.397 310.41L303.35 312.074C295.412 312.614 287.26 312.487 279.3 312.499L252.531 312.152C212.3 309.965 154.061 301.101 123.19 274.208C122.93 278.335 123.1 282.55 123.102 286.687L123.137 325.354C123.145 328.283 122.746 332.141 123.588 334.938C126.573 344.859 139.021 352.401 147.678 356.947C190.868 379.627 247.934 382.727 296.169 380.846L310.66 379.744C329.6 378.2 326.424 393.098 317.734 394.698L317.188 394.794C312.4 395.681 307.318 395.562 302.454 395.912C278.305 397.647 254.312 397.195 230.239 394.619L188.395 387.535C167.78 382.816 146.079 376.24 129.193 363.001L125.781 360.316C124.78 359.604 124.044 359.417 123.284 358.347L123.109 412.192C123.146 426.631 130.953 432.155 143.35 439.044C180.276 459.562 231.085 466.231 272.703 466.26L310.023 465.067C326.336 463.865 325.001 477.472 316.665 479.855C313.157 480.858 308.622 480.676 304.95 480.875L290 481.735C244.847 483.255 191.163 477.807 150 459.686C132.116 451.813 108.1 437.437 107.605 415.249L107.575 176.043C107.578 172.253 107.444 168.333 108.022 164.581C115.206 117.987 225.828 104.539 260.496 103.807ZM264.79 119.177C232.014 119.277 143.019 130.796 124.958 160.938L124.713 161.34C118.054 172.548 136.221 183.885 143.955 188.26C170.448 203.249 203.691 209.242 233.678 212.315L257.438 214.463L286.016 214.666L298.94 214.461C326.078 212.89 359.018 207.511 384.306 198.392C396.343 194.052 427.368 181.196 427.274 165.911L427.216 164.601C426.903 159.803 421.625 154.761 418.169 151.859C394.117 131.662 347.572 124.035 317.725 121L298.778 119.257L264.79 119.177ZM123.422 192.601C123.019 197.445 123.139 202.323 123.131 207.179L123.137 243.425C123.171 249.833 123.115 252.858 127.414 257.939C148.443 282.792 211.677 293.264 241.584 295.573C290.328 299.336 343.724 296.863 389.621 278.231C400.467 273.829 410.7 268.994 419.695 261.318L424.321 256.584C428.355 250.751 427.856 246.041 427.84 239.273L427.771 202.275C427.769 199.173 428.02 195.837 427.608 192.779C423.616 195.74 419.782 198.984 415.469 201.477C383.022 220.233 336.956 227.705 299.846 229.589L257.724 229.748C254.141 229.654 250.467 229.641 246.917 229.141L214.093 225.469C188.766 222.031 160.111 214.679 137.782 202.179C132.724 199.347 128.374 195.738 123.422 192.601Z" transform="scale(1.6)" fill="#daa200" class="color000000 svgShape"></path>
  <path d="M166.942 236.3C174.067 235.748 178.312 242.388 178.831 248.869L178.867 249.375C179.495 256.796 177.271 262.525 169.614 264.45C159.958 264.904 154.955 255.175 157.049 246.408L157.172 245.938C158.511 240.685 161.42 237.483 166.942 236.3Z" transform="scale(1.6)" fill="#daa200" class="color000000 svgShape"></path>
</svg>
