<svg xmlns="http://www.w3.org/2000/svg" enable-background="new 0 0 32 32" viewBox="0 0 32 32" id="UserFind">
  <path d="M30.293,25.879l-2.172-2.172c-0.565-0.564-1.318-0.876-2.121-0.876c-0.498,0-0.97,0.133-1.397,0.358l-0.742-0.742
		C25.813,20.173,27,17.225,27,14c0-7.168-5.832-13-13-13S1,6.832,1,14c0,7.168,5.832,13,13,13c3.225,0,6.173-1.188,8.447-3.139
		l0.742,0.742c-0.226,0.426-0.358,0.898-0.358,1.396c0,0.803,0.311,1.557,0.876,2.121l2.172,2.172
		c0.565,0.564,1.318,0.876,2.121,0.876s1.556-0.312,2.121-0.876l0.172-0.172c0.565-0.564,0.876-1.318,0.876-2.121
		S30.858,26.443,30.293,25.879z M14,25C7.935,25,3,20.065,3,14S7.935,3,14,3s11,4.935,11,11S20.065,25,14,25z M28.879,28.707
		l-0.172,0.172c-0.374,0.373-1.04,0.373-1.414,0l-2.172-2.172c-0.187-0.188-0.29-0.438-0.29-0.707s0.103-0.52,0.29-0.707
		l0.172-0.172c0.187-0.187,0.438-0.29,0.707-0.29s0.52,0.104,0.707,0.29l2.172,2.172c0.187,0.188,0.29,0.438,0.29,0.707
		S29.066,28.52,28.879,28.707z" fill="#f96d00" class="color000000 svgShape"></path>
  <path d="M14,5c-4.962,0-9,4.038-9,9c0,2.461,0.995,4.693,2.601,6.319c0.014,0.016,0.02,0.036,0.034,0.051
		c1.053,1.045,2.316,1.798,3.691,2.225h0c0.249,0.077,0.501,0.14,0.757,0.195c0.039,0.008,0.075,0.021,0.114,0.028
		c0.233,0.047,0.47,0.079,0.707,0.108c0.063,0.007,0.124,0.021,0.187,0.027C13.392,22.984,13.694,23,14,23s0.608-0.016,0.909-0.046
		c0.063-0.007,0.124-0.021,0.187-0.027c0.237-0.029,0.474-0.062,0.707-0.108c0.039-0.008,0.075-0.021,0.114-0.028
		c0.255-0.056,0.508-0.118,0.757-0.195h0c1.375-0.427,2.638-1.18,3.691-2.225c0.015-0.015,0.021-0.035,0.034-0.051
		C22.005,18.693,23,16.461,23,14C23,9.038,18.962,5,14,5z M18.048,19.7c-0.239,0.17-0.485,0.329-0.741,0.467
		c-0.074,0.039-0.151,0.071-0.226,0.108c-0.234,0.115-0.474,0.218-0.719,0.306c-0.072,0.025-0.143,0.056-0.216,0.079
		c-0.298,0.096-0.604,0.17-0.916,0.225c-0.076,0.014-0.152,0.024-0.229,0.035C14.672,20.967,14.339,21,14,21
		s-0.672-0.033-1.002-0.08c-0.077-0.011-0.153-0.021-0.229-0.035c-0.311-0.055-0.617-0.129-0.916-0.225
		c-0.073-0.023-0.144-0.054-0.216-0.079c-0.245-0.088-0.485-0.19-0.719-0.306c-0.075-0.037-0.152-0.069-0.226-0.108
		c-0.256-0.138-0.502-0.297-0.741-0.467c-0.046-0.033-0.09-0.067-0.136-0.102l1.481-1.481C11.881,17.532,13.17,17,14,17
		s2.119,0.532,2.703,1.117l1.481,1.481C18.139,19.633,18.095,19.667,18.048,19.7z M12,13c0-1.103,0.897-2,2-2s2,0.897,2,2
		s-0.897,2-2,2S12,14.103,12,13z M19.599,18.185l-1.481-1.481c-0.335-0.335-0.779-0.643-1.268-0.903C17.56,15.078,18,14.09,18,13
		c0-2.206-1.794-4-4-4s-4,1.794-4,4c0,1.09,0.441,2.078,1.15,2.8c-0.489,0.261-0.933,0.568-1.268,0.903l-1.481,1.481
		C7.526,17.016,7,15.57,7,14c0-3.86,3.14-7,7-7s7,3.14,7,7C21,15.569,20.474,17.016,19.599,18.185z" fill="#f96d00" class="color000000 svgShape"></path>
</svg>
