<svg xmlns="http://www.w3.org/2000/svg" viewBox="0 0 24 24" id="alignhorizontal">
  <defs>
    <linearGradient id="a" x1="3.971" x2="17.528" y1="18.778" y2="5.222" gradientUnits="userSpaceOnUse">
      <stop offset="0" stop-color="#c96112" class="stopColorea40ad svgShape"></stop>
      <stop offset="1" stop-color="#222831" class="stopColor9641ed svgShape"></stop>
    </linearGradient>
  </defs>
  <path fill="url(#a)" d="M22.001,11.25H19.49951V8.59961c0-1.918-.9751-2.84961-2.98144-2.84961H15.481c-2.00635,0-2.98145.93164-2.98145,2.84961V11.25H11.001l-.00147.00031V6.59961c0-1.918-.9751-2.84961-2.98144-2.84961H6.981c-2.00635,0-2.98145.93164-2.98145,2.84961V11.25H1.999a.75.75,0,0,0,0,1.5H3.99951v4.65039c0,1.918.9751,2.84961,2.98145,2.84961H8.01807c2.00634,0,2.98144-.93164,2.98144-2.84961v-4.6507L11.001,12.75h1.49853v2.65039c0,1.918.9751,2.84961,2.98145,2.84961h1.03711c2.00634,0,2.98144-.93164,2.98144-2.84961V12.75H22.001a.75.75,0,0,0,0-1.5ZM9.49951,17.40039c0,1.0127-.21435,1.34961-1.48144,1.34961H6.981c-1.26709,0-1.48145-.33691-1.48145-1.34961V6.59961c0-1.0127.21436-1.34961,1.48145-1.34961H8.01807c1.26709,0,1.48144.33691,1.48144,1.34961Zm8.5-2c0,1.0127-.21435,1.34961-1.48144,1.34961H15.481c-1.26709,0-1.48145-.33691-1.48145-1.34961V8.59961c0-1.0127.21436-1.34961,1.48145-1.34961h1.03711c1.26709,0,1.48144.33691,1.48144,1.34961Z"></path>
</svg>
