<svg xmlns="http://www.w3.org/2000/svg" viewBox="0 0 24 24" id="moneysend">
  <defs>
    <linearGradient id="a" x1="4.402" x2="22.53" y1="19.598" y2="1.47" gradientUnits="userSpaceOnUse">
      <stop offset="0" stop-color="#c96112" class="stopColor16b0e2 svgShape"></stop>
      <stop offset="1" stop-color="#222831" class="stopColor6e5af0 svgShape"></stop>
    </linearGradient>
  </defs>
  <path fill="url(#a)" d="M12.75,7.5a.75.75,0,0,0-1.5,0v.25h-.3a2.243,2.243,0,0,0-2.2,2.275,2.043,2.043,0,0,0,1.495,2.156l1.005.351V14.75h-.083a.962.962,0,0,1-.917-1,.75.75,0,0,0-1.5,0,2.462,2.462,0,0,0,2.417,2.5h.083v.25a.75.75,0,0,0,1.5,0v-.25h.3a2.243,2.243,0,0,0,2.2-2.275,2.043,2.043,0,0,0-1.495-2.156l-1.005-.351V9.25h.083a.962.962,0,0,1,.917,1,.75.75,0,0,0,1.5,0,2.462,2.462,0,0,0-2.417-2.5H12.75Zm-1.5,3.443-.509-.178c-.341-.119-.491-.2-.491-.74a.742.742,0,0,1,.7-.775h.3Zm2.009,2.292c.341.119.491.2.491.74a.742.742,0,0,1-.7.775h-.3V13.057ZM22.75,12A10.75,10.75,0,1,1,12,1.25a.75.75,0,0,1,0,1.5A9.25,9.25,0,1,0,21.25,12a.75.75,0,0,1,1.5,0Zm0-10V6a.75.75,0,0,1-1.5,0V3.811L17.53,7.53a.75.75,0,0,1-1.06-1.06l3.719-3.72H18a.75.75,0,0,1,0-1.5h4a.753.753,0,0,1,.75.75Z"></path>
</svg>
