<svg xmlns="http://www.w3.org/2000/svg" xmlns:xlink="http://www.w3.org/1999/xlink" viewBox="0 0 32 32" id="Office">
  <defs>
    <linearGradient id="a">
      <stop offset="0" stop-color="#222831" class="stopColor000092 svgShape"></stop>
      <stop offset="1" stop-color="#c96112" class="stopColorff00f3 svgShape"></stop>
    </linearGradient>
    <linearGradient xlink:href="#a" id="b" x1="1" x2="29" y1="14.5" y2="14.5" gradientUnits="userSpaceOnUse"></linearGradient>
  </defs>
  <path fill="url(#b)" d="M17.5 0C9.498 0 3 6.498 3 14.5c0 2.086.451 4.064 1.246 5.857l-1.184.674A4.092 4.092 0 0 0 1 24.594V29h21v-.723c5.8-1.896 10-7.347 10-13.777C32 6.498 25.502 0 17.5 0zm0 1C24.962 1 31 7.038 31 14.5c0 5.881-3.757 10.864-9 12.717v-2.26c4.048-1.747 6.887-5.772 6.887-10.457 0-6.283-5.104-11.387-11.387-11.387-2.62 0-5.028.896-6.953 2.387h-.828C8.216 5.5 7 6.738 7 8.25v1.848a11.334 11.334 0 0 0-.035 8.71L5.11 19.864A13.464 13.464 0 0 1 4 14.5C4 7.038 10.038 1 17.5 1zm0 3.113A10.38 10.38 0 0 1 27.887 14.5c0 4.149-2.43 7.714-5.942 9.379A3.98 3.98 0 0 0 20 21.062l-1-.568v-.627c1.04-.16 1.996-.688 2.531-1.615a3.504 3.504 0 0 0 0-3.5c-.535-.927-1.49-1.456-2.531-1.615v-1.135h3v-3h-3v-2h-3v.248c-.099-.76-.33-1.443-.781-1.969a2.368 2.368 0 0 0-.942-.654 10.39 10.39 0 0 1 3.223-.514zm-4.219.324zm.156 1.063c.444.037.794.16 1.032.438.273.318.449.803.531 1.437v3.031a2.725 2.725 0 0 0-.625-.219c-.595-.109-1.203-.089-1.781-.062-.579.024-1.155.027-1.594-.094-.439-.121-.772-.308-1.063-.812a.515.515 0 0 0-.562-.25.51.51 0 0 0-.344.375c.018-.068-.052.089-.187.25-.136.16-.334.355-.531.531-.111.099-.208.17-.313.25V8.25c0-.982.76-1.75 1.719-1.75H11.968a2.202 2.202 0 0 0 1.126-.406c.178-.127.222-.392.344-.594zM17 8.002h1v2h3v1h-3v3h.5a2.502 2.502 0 0 1 2.164 3.75 2.502 2.502 0 0 1-2.164 1.25H18v.924l-1-.57v-.354h-.623L15 18.219v-.217h2v-3h-.5a2.47 2.47 0 0 1-.896-.188c.132-.302.239-.615.304-.947.186.08.384.135.592.135h.5v-3h-.5c-.174 0-.34.04-.5.098v-1.032a2.47 2.47 0 0 1 .5-.066h.5v-2zm-7.344 2.154c.35.34.676.729 1.094.844.634.175 1.28.15 1.875.125.595-.025 1.15-.045 1.563.031.37.068.613.21.812.5V13c0 1.98-1.555 3.531-3.5 3.531S8 14.98 8 13v-1.406c.099-.048.183-.126.281-.188.236-.15.459-.327.688-.531a6.47 6.47 0 0 0 .625-.625c.025-.03.038-.065.062-.094zM7 13c0 .205.028.403.055.602A3.828 3.828 0 0 1 7 13zm.137 1.035c.16.67.452 1.292.863 1.809v2.375l-.158.09a10.358 10.358 0 0 1-.729-3.809c0-.157.017-.31.024-.465zM18 15.002v3h.5c.535 0 1.032-.288 1.299-.75a1.503 1.503 0 0 0 0-1.5 1.503 1.503 0 0 0-1.299-.75H18zm-2.857.629c.275.106.56.19.857.236v1.135h-1v-1.158c.053-.067.093-.144.143-.213zM9 16.812c.711.474 1.582.72 2.5.72.918 0 1.789-.246 2.5-.72v1.907c-.403.754-.76 1.548-1.656 2.312l-.031.032-.813.75-.75-.75-.063-.063c-.699-.755-1.36-1.649-1.687-2.5v-1.688zm-1.375 2.782L7 21.812v.063c-.094.778.75 1.434 1.469 1.094v-.032l1.844-.906.687.657V28H6v-2.5H5V28H2v-3.406c0-1.118.592-2.164 1.563-2.719l4.062-2.281zm1 0c.32.576.637 1.13 1.063 1.625l-1.657.843c-.038.018-.041.022-.031-.062l.625-2.406zm6.906.062 3.969 2.282A2.966 2.966 0 0 1 21 24.5V28h-2.969v-2.5h-1V28H12v-5.281l.75-.688 1.969.938c.728.33 1.569-.301 1.469-1.094v-.093s-.278-.844-.532-1.688c-.048-.16-.078-.286-.125-.438zm-1 .157c.058.199.094.386.156.593.244.807.473 1.509.5 1.594.01.068 0 .09-.062.06l-1.688-.812c.464-.507.848-.978 1.094-1.436zM13 24.5a.5.5 0 1 0 0 1 .5.5 0 0 0 0-1zm0 2a.5.5 0 1 0 0 1 .5.5 0 0 0 0-1z" color="#000" font-family="Sans" font-weight="400" overflow="visible" style="line-height:normal;-inkscape-font-specification:Sans;text-indent:0;text-align:start;text-decoration-line:none;text-transform:none;block-progression:tb;marker:none"></path>
</svg>
